<svg width="50" height="50" viewBox="0 0 50 50" fill="none" xmlns="http://www.w3.org/2000/svg">
<path d="M25 29.6875C28.8833 29.6875 32.0312 26.5395 32.0312 22.6562C32.0312 18.773 28.8833 15.625 25 15.625C21.1167 15.625 17.9688 18.773 17.9688 22.6562C17.9688 26.5395 21.1167 29.6875 25 29.6875Z" fill="#F0BC5E"/>
<path d="M36.7188 29.6875H46.0938V33.5938H36.7188V29.6875Z" fill="#F0BC5E"/>
<path d="M27.3438 35.1562H28.9062V36.7188H27.3438V35.1562Z" fill="black"/>
<path d="M24.2188 35.1562H25.7812V36.7188H24.2188V35.1562Z" fill="black"/>
<path d="M21.0938 35.1562H22.6562V36.7188H21.0938V35.1562Z" fill="black"/>
<path d="M25 14.8438C20.6922 14.8438 17.1875 18.3484 17.1875 22.6562C17.1875 26.9641 20.6922 30.4688 25 30.4688C29.3078 30.4688 32.8125 26.9641 32.8125 22.6562C32.8125 18.3484 29.3078 14.8438 25 14.8438ZM25 28.9062C24.7555 28.9062 24.232 28.107 23.8578 26.5625H26.1422C25.768 28.107 25.2445 28.9062 25 28.9062ZM23.5789 25C23.5187 24.5203 23.4742 24.0023 23.4531 23.4375H26.5484C26.5273 24.0023 26.482 24.5203 26.4227 25H23.5789ZM25 16.4062C25.2445 16.4062 25.768 17.2055 26.1422 18.75H23.8578C24.232 17.2055 24.7555 16.4062 25 16.4062V16.4062ZM26.4211 20.3125C26.4813 20.7922 26.5258 21.3102 26.5469 21.875H23.4516C23.4727 21.3102 23.518 20.7922 23.5773 20.3125H26.4211ZM21.8898 21.875H18.8039C18.8727 21.3297 19.0094 20.8055 19.2102 20.3125H22.0062C21.9484 20.8258 21.9086 21.3492 21.8898 21.875ZM18.8039 23.4375H21.8898C21.9086 23.9633 21.9484 24.4867 22.0062 25H19.2102C19.0102 24.507 18.8727 23.9828 18.8039 23.4375ZM28.1102 23.4375H31.1961C31.1273 23.9828 30.9906 24.507 30.7898 25H27.9938C28.0516 24.4867 28.0914 23.9633 28.1102 23.4375ZM28.1102 21.875C28.0914 21.3492 28.0516 20.8258 27.9938 20.3125H30.7898C30.9898 20.8055 31.1273 21.3297 31.1961 21.875H28.1102ZM29.8711 18.75H27.7469C27.5969 18.032 27.4031 17.3664 27.1594 16.7984C28.232 17.1953 29.1672 17.8742 29.8711 18.75ZM22.8406 16.7984C22.5969 17.3664 22.4031 18.032 22.2531 18.75H20.1289C20.8328 17.8742 21.768 17.1953 22.8406 16.7984ZM20.1289 26.5625H22.2531C22.4031 27.2805 22.5969 27.9461 22.8406 28.5141C21.768 28.1172 20.8328 27.4383 20.1289 26.5625ZM27.1594 28.5141C27.4031 27.9461 27.5969 27.2805 27.7469 26.5625H29.8711C29.1672 27.4383 28.232 28.1172 27.1594 28.5141Z" fill="#009FFC"/>
<path d="M49.2188 12.3156V7.99766L47.168 7.43672C47.1008 7.25781 47.0266 7.07969 46.9445 6.90234L47.9992 5.05312L44.9461 2.00078L43.0984 3.05625C42.9219 2.975 42.743 2.9 42.5633 2.83281L42.0023 0.78125H37.6852L37.1242 2.83203C36.9445 2.89922 36.7656 2.97422 36.5891 3.05547L34.7414 2L31.6883 5.05234L32.743 6.90156C32.6617 7.07891 32.5867 7.25703 32.5195 7.43594L30.4688 7.99688V8.59375H19.5312V0.78125H0.78125V16.4062H3.90625V25.4078C2.02344 26.6703 0.78125 28.8172 0.78125 31.25V31.4008C0.78125 32.9914 1.32812 34.5508 2.32187 35.7938L3.90625 37.7742V39.0625C3.90625 41.2164 5.65859 42.9688 7.8125 42.9688C9.69844 42.9688 11.2766 41.6242 11.6398 39.8438H16.968L15.7961 44.5312H13.2812C11.9891 44.5312 10.9375 45.5828 10.9375 46.875V49.2188H39.0625V46.875C39.0625 45.5828 38.0109 44.5312 36.7188 44.5312H34.2039L33.032 39.8438H42.1875C44.0734 39.8438 45.6516 38.4992 46.0148 36.7188H46.875C48.1672 36.7188 49.2188 35.6672 49.2188 34.375V28.125C49.2188 26.8328 48.1672 25.7812 46.875 25.7812H46.0938V17.1648L47.9992 15.2594L46.9445 13.4102C47.0258 13.2328 47.1008 13.0547 47.168 12.8758L49.2188 12.3156ZM41.4062 24.6766L39.9383 23.2078C39.5867 22.8578 39.1008 22.6562 38.6047 22.6562C37.5648 22.6562 36.7188 23.5023 36.7188 24.5422V25.7812H35.9375C34.6453 25.7812 33.5938 26.8328 33.5938 28.125V32.0312H14.8141C14.8328 31.8219 14.8438 31.6117 14.8438 31.4008V31.25C14.8438 27.6367 12.1039 24.6547 8.59375 24.2648V16.4062H19.5312V13.2812H32.6891C32.7078 13.3242 32.7234 13.3672 32.743 13.4102L31.6883 15.2594L34.7414 18.3117L36.5891 17.2562C36.7656 17.3375 36.9445 17.4125 37.1242 17.4797L37.6852 19.5312H41.4062V24.6766ZM17.9688 14.0906L13.0063 10.4813C13.1031 10.3781 13.1953 10.2703 13.2812 10.1562L17.9688 3.90625V14.0906ZM12.0312 9.21875C11.5914 9.80625 10.8898 10.1562 10.1562 10.1562C9.42266 10.1562 8.72109 9.80625 8.28125 9.21953L3.12422 2.34375H17.1875L12.0312 9.21875ZM7.03125 10.157C7.11719 10.2711 7.20938 10.3789 7.30625 10.482L2.34375 14.0906V3.90625L7.03125 10.157ZM8.675 11.4188C9.14063 11.6102 9.64297 11.7188 10.1562 11.7188C10.6695 11.7188 11.1711 11.6102 11.6375 11.4188L16.3477 14.8438H3.96484L8.675 11.4188ZM30.4688 10.1562V11.7188H19.5312V10.1562H30.4688ZM5.46875 16.4062H7.03125V24.2648C6.48906 24.325 5.96719 24.4523 5.46875 24.6289V16.4062ZM3.54219 34.8172C2.76953 33.8516 2.34375 32.6375 2.34375 31.4008V31.25C2.34375 28.2352 4.79688 25.7812 7.8125 25.7812C10.8281 25.7812 13.2812 28.2352 13.2812 31.25V31.4008C13.2812 32.6375 12.8555 33.8516 12.0828 34.8172L10.5625 36.7188H8.59375V32.8125H7.03125V36.7188H5.0625L3.54219 34.8172ZM7.8125 41.4062C6.52031 41.4062 5.46875 40.3547 5.46875 39.0625V38.2812H10.1562V39.0625C10.1562 40.3547 9.10469 41.4062 7.8125 41.4062ZM37.5 46.875V47.6562H12.5V46.875C12.5 46.4438 12.8508 46.0938 13.2812 46.0938H36.7188C37.1492 46.0938 37.5 46.4438 37.5 46.875ZM32.593 44.5312H17.407L18.5789 39.8438H31.4211L32.593 44.5312ZM42.1875 38.2812H11.7188V37.7742L13.3031 35.7945C13.8297 35.1359 14.2266 34.3875 14.4867 33.5945H33.5938V34.3758C33.5938 35.668 34.6453 36.7195 35.9375 36.7195H44.3875C44.0641 37.6258 43.2047 38.2812 42.1875 38.2812ZM47.6562 28.125V34.375C47.6562 34.8062 47.3055 35.1562 46.875 35.1562H35.9375C35.507 35.1562 35.1562 34.8062 35.1562 34.375V28.125C35.1562 27.6938 35.507 27.3438 35.9375 27.3438H38.2812V24.5422C38.2812 24.2789 38.6461 24.1273 38.8336 24.3133L41.8641 27.3438H46.875C47.3055 27.3438 47.6562 27.6938 47.6562 28.125ZM42.9688 25.7812V17.3109C43.0117 17.2922 43.0555 17.2766 43.0984 17.257L44.5312 18.075V25.7812H42.9688ZM45.943 11.5914L45.8164 12.0008C45.7055 12.3594 45.5555 12.7203 45.3695 13.0719L45.1695 13.4508L46.0516 14.9969L44.6844 16.3633L43.1383 15.4805L42.7586 15.682C42.4109 15.8664 42.0508 16.0172 41.6891 16.1289L41.2789 16.2547L40.8102 17.9688H38.8773L38.4086 16.2555L37.9984 16.1297C37.6367 16.0172 37.2766 15.8672 36.9289 15.6828L36.5492 15.4812L35.0031 16.3641L33.6359 14.9977L34.518 13.4516L34.318 13.0727C34.132 12.7211 33.982 12.3602 33.8711 12.0016L33.7445 11.5922L32.0312 11.1219V9.18984L33.7445 8.72031L33.8711 8.31094C33.982 7.95234 34.132 7.59141 34.318 7.23984L34.518 6.86094L33.6359 5.31484L35.0031 3.94844L36.5492 4.83125L36.9289 4.62969C37.2766 4.44531 37.6367 4.29453 37.9984 4.18281L38.4086 4.05703L38.8773 2.34375H40.8102L41.2789 4.05703L41.6891 4.18281C42.0508 4.29531 42.4109 4.44531 42.7586 4.62969L43.1383 4.83125L44.6844 3.94844L46.0516 5.31484L45.1695 6.86094L45.3695 7.23984C45.5555 7.59141 45.7055 7.95234 45.8164 8.31094L45.943 8.72031L47.6562 9.19062V11.1227L45.943 11.5914Z" fill="#009FFC"/>
<path d="M39.8438 5.46875C37.2586 5.46875 35.1562 7.57109 35.1562 10.1562C35.1562 12.7414 37.2586 14.8438 39.8438 14.8438C42.4289 14.8438 44.5312 12.7414 44.5312 10.1562C44.5312 7.57109 42.4289 5.46875 39.8438 5.46875ZM39.8438 13.2812C38.1203 13.2812 36.7188 11.8797 36.7188 10.1562C36.7188 8.43281 38.1203 7.03125 39.8438 7.03125C41.5672 7.03125 42.9688 8.43281 42.9688 10.1562C42.9688 11.8797 41.5672 13.2812 39.8438 13.2812Z" fill="#009FFC"/>
<path d="M36.7188 32.0312H42.9688V33.5938H36.7188V32.0312Z" fill="black"/>
<path d="M44.5312 32.0312H46.0938V33.5938H44.5312V32.0312Z" fill="black"/>
<path d="M36.7188 28.9062H46.0938V30.4688H36.7188V28.9062Z" fill="#009FFC"/>
<path d="M7.8125 33.5938C6.52031 33.5938 5.46875 32.5422 5.46875 31.25C5.46875 29.9578 6.52031 28.9062 7.8125 28.9062C9.10469 28.9062 10.1562 29.9578 10.1562 31.25C10.1562 32.5422 9.10469 33.5938 7.8125 33.5938Z" fill="#009FFC"/>
</svg>
