<svg width="50" height="50" viewBox="0 0 50 50" fill="none" xmlns="http://www.w3.org/2000/svg">
<path d="M49.0741 48.3146H47.5309V4.21348C47.5309 3.74795 47.1163 3.3708 46.605 3.3708H29.321C28.8096 3.3708 28.3951 3.74795 28.3951 4.21348V7.86514H26.5433V4.21348C26.5433 3.74795 26.1287 3.3708 25.6174 3.3708H21.605V0.842676C21.605 0.377148 21.1904 0 20.6791 0C20.1678 0 19.7532 0.377148 19.7532 0.842676V3.3708H15.7409C15.2295 3.3708 14.815 3.74795 14.815 4.21348V7.86514H12.0372C11.5258 7.86514 11.1113 8.24229 11.1113 8.70781V15.7303H3.39522C2.88383 15.7303 2.46932 16.1074 2.46932 16.5729V48.3146H0.925902C0.414505 48.3146 0 48.6917 0 49.1572C0 49.6228 0.414612 50 0.925902 50H49.0741C49.5855 50 50 49.6229 50 49.1573C50 48.6918 49.5854 48.3146 49.0741 48.3146ZM16.6667 5.05615H24.6913V7.86514H16.6667V5.05615ZM13.5803 48.3146H12.963V46.9102C12.963 46.4446 12.5483 46.0675 12.037 46.0675C11.5258 46.0675 11.1111 46.4446 11.1111 46.9102V48.3146H10.4938V45.5057H13.5803V48.3146ZM19.7531 26.6854V28.1351V48.3146H15.4321V44.663C15.4321 44.1975 15.0174 43.8203 14.5062 43.8203H9.56794C9.05654 43.8203 8.64204 44.1975 8.64204 44.663V48.3146H4.32102V17.4157H19.7531V26.6854ZM20.679 15.7304H12.963V9.55059H28.395V25.8427H21.605V23.0337H24.3828C24.8942 23.0337 25.3087 22.6565 25.3087 22.191C25.3087 21.7255 24.8941 21.3483 24.3828 21.3483H21.605V18.5394H24.3828C24.8942 18.5394 25.3087 18.1622 25.3087 17.6967C25.3087 17.2312 24.8941 16.854 24.3828 16.854H21.605V16.5731C21.605 16.1075 21.1904 15.7304 20.679 15.7304ZM37.037 48.3146H21.605V28.1351V27.5281H37.037V48.3146ZM45.679 48.3146H38.8889V26.6854V25.5617C38.8889 25.0962 38.4742 24.719 37.9629 24.719C37.4517 24.719 37.037 25.0962 37.037 25.5617V25.8426H35.1852V25.5617C35.1852 25.0962 34.7706 24.719 34.2593 24.719C33.7481 24.719 33.3334 25.0962 33.3334 25.5617V25.8426H30.247V8.70791V5.05615H45.6791V48.3146H45.679Z" fill="#009FFC"/>
<path d="M25.6173 46.6294C26.1287 46.6294 26.5432 46.252 26.5432 45.7867V30.0564C26.5432 29.5909 26.1286 29.2137 25.6173 29.2137C25.106 29.2137 24.6914 29.5909 24.6914 30.0564V45.7868C24.6914 46.2521 25.1059 46.6294 25.6173 46.6294Z" fill="#009FFC"/>
<path d="M29.3209 46.6294C29.8323 46.6294 30.2468 46.252 30.2468 45.7867V30.0564C30.2468 29.5909 29.8322 29.2137 29.3209 29.2137C28.8096 29.2137 28.395 29.5909 28.395 30.0564V45.7868C28.3949 46.2521 28.8095 46.6294 29.3209 46.6294Z" fill="#009FFC"/>
<path d="M33.0245 46.6294C33.5359 46.6294 33.9504 46.252 33.9504 45.7867V30.0564C33.9504 29.5909 33.5358 29.2137 33.0245 29.2137C32.5132 29.2137 32.0986 29.5909 32.0986 30.0564V45.7868C32.0986 46.2521 32.5132 46.6294 33.0245 46.6294Z" fill="#009FFC"/>
<path d="M34.2594 10.6741C34.7708 10.6741 35.1853 10.297 35.1853 9.83145V8.70791C35.1853 8.24238 34.7707 7.86523 34.2594 7.86523C33.7481 7.86523 33.3335 8.24238 33.3335 8.70791V9.83154C33.3335 10.297 33.748 10.6741 34.2594 10.6741Z" fill="#009FFC"/>
<path d="M37.963 10.6741C38.4744 10.6741 38.8889 10.297 38.8889 9.83145V8.70791C38.8889 8.24238 38.4743 7.86523 37.963 7.86523C37.4517 7.86523 37.0371 8.24238 37.0371 8.70791V9.83154C37.0371 10.297 37.4516 10.6741 37.963 10.6741Z" fill="#009FFC"/>
<path d="M41.6666 10.6741C42.178 10.6741 42.5925 10.297 42.5925 9.83145V8.70791C42.5925 8.24238 42.1779 7.86523 41.6666 7.86523C41.1553 7.86523 40.7407 8.24238 40.7407 8.70791V9.83154C40.7407 10.297 41.1552 10.6741 41.6666 10.6741Z" fill="#009FFC"/>
<path d="M34.2594 16.2921C34.7708 16.2921 35.1853 15.915 35.1853 15.4495V14.3258C35.1853 13.8603 34.7707 13.4832 34.2594 13.4832C33.7481 13.4832 33.3335 13.8603 33.3335 14.3258V15.4495C33.3335 15.915 33.748 16.2921 34.2594 16.2921Z" fill="#009FFC"/>
<path d="M37.963 16.2921C38.4744 16.2921 38.8889 15.915 38.8889 15.4495V14.3258C38.8889 13.8603 38.4743 13.4832 37.963 13.4832C37.4517 13.4832 37.0371 13.8603 37.0371 14.3258V15.4495C37.0371 15.915 37.4516 16.2921 37.963 16.2921Z" fill="#009FFC"/>
<path d="M41.6666 16.2921C42.178 16.2921 42.5925 15.915 42.5925 15.4495V14.3258C42.5925 13.8603 42.1779 13.4832 41.6666 13.4832C41.1553 13.4832 40.7407 13.8603 40.7407 14.3258V15.4495C40.7407 15.915 41.1552 16.2921 41.6666 16.2921Z" fill="#009FFC"/>
<path d="M34.2594 21.9102C34.7708 21.9102 35.1853 21.533 35.1853 21.0675V19.9439C35.1853 19.4783 34.7707 19.1012 34.2594 19.1012C33.7481 19.1012 33.3335 19.4783 33.3335 19.9439V21.0675C33.3335 21.5329 33.748 21.9102 34.2594 21.9102Z" fill="#009FFC"/>
<path d="M37.963 21.9102C38.4744 21.9102 38.8889 21.533 38.8889 21.0675V19.9439C38.8889 19.4783 38.4743 19.1012 37.963 19.1012C37.4517 19.1012 37.0371 19.4783 37.0371 19.9439V21.0675C37.0371 21.5329 37.4516 21.9102 37.963 21.9102Z" fill="#009FFC"/>
<path d="M41.6666 21.9102C42.178 21.9102 42.5925 21.533 42.5925 21.0675V19.9439C42.5925 19.4783 42.1779 19.1012 41.6666 19.1012C41.1553 19.1012 40.7407 19.4783 40.7407 19.9439V21.0675C40.7407 21.5329 41.1552 21.9102 41.6666 21.9102Z" fill="#009FFC"/>
<path d="M8.33313 24.1574C8.84453 24.1574 9.25903 23.7802 9.25903 23.3147V22.1911C9.25903 21.7255 8.84442 21.3484 8.33313 21.3484C7.82184 21.3484 7.40723 21.7255 7.40723 22.1911V23.3147C7.40723 23.7801 7.82184 24.1574 8.33313 24.1574Z" fill="#009FFC"/>
<path d="M12.0372 24.1574C12.5486 24.1574 12.9631 23.7802 12.9631 23.3147V22.1911C12.9631 21.7255 12.5485 21.3484 12.0372 21.3484C11.5259 21.3484 11.1113 21.7255 11.1113 22.1911V23.3147C11.1113 23.7801 11.5258 24.1574 12.0372 24.1574Z" fill="#009FFC"/>
<path d="M15.7408 24.1574C16.2522 24.1574 16.6667 23.7802 16.6667 23.3147V22.1911C16.6667 21.7255 16.2521 21.3484 15.7408 21.3484C15.2296 21.3484 14.8149 21.7255 14.8149 22.1911V23.3147C14.8149 23.7801 15.2294 24.1574 15.7408 24.1574Z" fill="#009FFC"/>
<path d="M8.33313 29.7753C8.84453 29.7753 9.25903 29.3981 9.25903 28.9326V27.809C9.25903 27.3435 8.84442 26.9663 8.33313 26.9663C7.82184 26.9663 7.40723 27.3435 7.40723 27.809V28.9326C7.40723 29.398 7.82184 29.7753 8.33313 29.7753Z" fill="#009FFC"/>
<path d="M12.0372 29.7753C12.5486 29.7753 12.9631 29.3981 12.9631 28.9326V27.809C12.9631 27.3435 12.5485 26.9663 12.0372 26.9663C11.5259 26.9663 11.1113 27.3435 11.1113 27.809V28.9326C11.1113 29.398 11.5258 29.7753 12.0372 29.7753Z" fill="#009FFC"/>
<path d="M15.7408 29.7753C16.2522 29.7753 16.6667 29.3981 16.6667 28.9326V27.809C16.6667 27.3435 16.2521 26.9663 15.7408 26.9663C15.2296 26.9663 14.8149 27.3435 14.8149 27.809V28.9326C14.8149 29.398 15.2294 29.7753 15.7408 29.7753Z" fill="#009FFC"/>
<path d="M8.33313 35.3932C8.84453 35.3932 9.25903 35.0161 9.25903 34.5505V33.4269C9.25903 32.9614 8.84442 32.5842 8.33313 32.5842C7.82184 32.5842 7.40723 32.9614 7.40723 33.4269V34.5505C7.40723 35.0161 7.82184 35.3932 8.33313 35.3932Z" fill="#009FFC"/>
<path d="M12.0372 35.3932C12.5486 35.3932 12.9631 35.0161 12.9631 34.5505V33.4269C12.9631 32.9614 12.5485 32.5842 12.0372 32.5842C11.5259 32.5842 11.1113 32.9614 11.1113 33.4269V34.5505C11.1113 35.0161 11.5258 35.3932 12.0372 35.3932Z" fill="#009FFC"/>
<path d="M15.7408 35.3932C16.2522 35.3932 16.6667 35.0161 16.6667 34.5505V33.4269C16.6667 32.9614 16.2521 32.5842 15.7408 32.5842C15.2296 32.5842 14.8149 32.9614 14.8149 33.4269V34.5505C14.8149 35.0161 15.2294 35.3932 15.7408 35.3932Z" fill="#009FFC"/>
<path d="M8.33313 41.0113C8.84453 41.0113 9.25903 40.6341 9.25903 40.1686V39.0449C9.25903 38.5794 8.84442 38.2023 8.33313 38.2023C7.82184 38.2023 7.40723 38.5794 7.40723 39.0449V40.1686C7.40723 40.6341 7.82184 41.0113 8.33313 41.0113Z" fill="#009FFC"/>
<path d="M12.0372 41.0113C12.5486 41.0113 12.9631 40.6341 12.9631 40.1686V39.0449C12.9631 38.5794 12.5485 38.2023 12.0372 38.2023C11.5259 38.2023 11.1113 38.5794 11.1113 39.0449V40.1686C11.1113 40.6341 11.5258 41.0113 12.0372 41.0113Z" fill="#009FFC"/>
<path d="M15.7408 41.0113C16.2522 41.0113 16.6667 40.6341 16.6667 40.1686V39.0449C16.6667 38.5794 16.2521 38.2023 15.7408 38.2023C15.2296 38.2023 14.8149 38.5794 14.8149 39.0449V40.1686C14.8149 40.6341 15.2294 41.0113 15.7408 41.0113Z" fill="#009FFC"/>
<path d="M41.6666 27.5281C42.178 27.5281 42.5925 27.151 42.5925 26.6854V25.5618C42.5925 25.0963 42.1779 24.7191 41.6666 24.7191C41.1553 24.7191 40.7407 25.0963 40.7407 25.5618V26.6854C40.7407 27.1509 41.1552 27.5281 41.6666 27.5281Z" fill="#009FFC"/>
<path d="M41.6666 33.1461C42.178 33.1461 42.5925 32.769 42.5925 32.3035V31.1798C42.5925 30.7143 42.1779 30.3372 41.6666 30.3372C41.1553 30.3372 40.7407 30.7143 40.7407 31.1798V32.3035C40.7407 32.7689 41.1552 33.1461 41.6666 33.1461Z" fill="#009FFC"/>
<path d="M41.6666 38.7641C42.178 38.7641 42.5925 38.3869 42.5925 37.9214V36.7978C42.5925 36.3322 42.1779 35.9551 41.6666 35.9551C41.1553 35.9551 40.7407 36.3322 40.7407 36.7978V37.9214C40.7407 38.3868 41.1552 38.7641 41.6666 38.7641Z" fill="#009FFC"/>
<path d="M41.6666 44.382C42.178 44.382 42.5925 44.0048 42.5925 43.5393V42.4157C42.5925 41.9501 42.1779 41.573 41.6666 41.573C41.1553 41.573 40.7407 41.9501 40.7407 42.4157V43.5393C40.7407 44.0047 41.1552 44.382 41.6666 44.382Z" fill="#009FFC"/>
<path d="M25.3086 13.2023C25.3086 12.7368 24.8939 12.3596 24.3826 12.3596H16.9752C16.4638 12.3596 16.0493 12.7368 16.0493 13.2023C16.0493 13.6678 16.4639 14.045 16.9752 14.045H24.3826C24.894 14.045 25.3086 13.6678 25.3086 13.2023Z" fill="#009FFC"/>
</svg>
