<svg width="50" height="51" viewBox="0 0 50 51" fill="none" xmlns="http://www.w3.org/2000/svg">
<path d="M34.9961 36.692H33.3296V38.3587H34.9961V36.692Z" fill="#009FFC"/>
<path d="M38.3291 33.3588H36.6626V35.0254H38.3291V33.3588Z" fill="#009FFC"/>
<path d="M38.3291 36.692H36.6626V38.3587H38.3291V36.692Z" fill="#009FFC"/>
<path d="M38.3291 30.0254H36.6626V31.692H38.3291V30.0254Z" fill="#009FFC"/>
<path d="M38.3291 26.6921H36.6626V28.3588H38.3291V26.6921Z" fill="#009FFC"/>
<path d="M16.665 13.3589H14.9985V15.0255H16.665V13.3589Z" fill="#009FFC"/>
<path d="M19.9975 13.3589H18.3311V15.0255H19.9975V13.3589Z" fill="#009FFC"/>
<path d="M23.3305 13.3589H21.6641V15.0255H23.3305V13.3589Z" fill="#009FFC"/>
<path d="M16.665 20.0255H14.9985V21.6922H16.665V20.0255Z" fill="#009FFC"/>
<path d="M16.665 16.6923H14.9985V18.3589H16.665V16.6923Z" fill="#009FFC"/>
<path d="M16.665 23.3588H14.9985V25.0254H16.665V23.3588Z" fill="#009FFC"/>
<path d="M31.6631 29.1921C31.6631 27.8114 30.544 26.6921 29.1634 26.6921H4.1662C2.78562 26.6921 1.66648 27.8114 1.66648 29.1921V45.0253H0V47.5253C0 48.906 1.11915 50.0253 2.49972 50.0253H30.8299C32.2104 50.0253 33.3296 48.906 33.3296 47.5253V45.0253H31.6631V29.1921ZM3.33296 29.1921C3.33296 28.7319 3.70604 28.3588 4.1662 28.3588H29.1634C29.6235 28.3588 29.9966 28.7319 29.9966 29.1921V45.0253H3.33296V29.1921ZM31.6631 47.5253C31.6631 47.9855 31.29 48.3586 30.8299 48.3586H2.49972C2.03956 48.3586 1.66648 47.9855 1.66648 47.5253V46.692H31.6631V47.5253Z" fill="#009FFC"/>
<path d="M4.16602 44.192H29.1632V29.1921H4.16602V44.192ZM5.8325 30.8588H27.4967V42.5254H5.8325V30.8588Z" fill="#009FFC"/>
<path d="M49.6377 9.55423C49.1491 7.56164 48.1773 5.72009 46.8081 4.19229C44.1298 1.19252 40.1701 -0.332259 36.1718 0.0964878C35.619 0.159612 35.0712 0.260132 34.532 0.397319C27.8323 2.04043 23.7331 8.80423 25.376 15.5046C27.019 22.205 33.782 26.3046 40.4817 24.6615C47.1814 23.0184 51.2806 16.2546 49.6377 9.55423ZM30.2208 4.50479C30.2749 4.45562 30.3341 4.41395 30.3874 4.36562C30.6032 4.17729 30.8232 3.99396 31.054 3.82396C31.1582 3.74729 31.2682 3.67813 31.3748 3.60479C31.5623 3.47563 31.7523 3.34813 31.9473 3.23146C32.0697 3.15813 32.1972 3.09146 32.3214 3.02313C32.5105 2.9198 32.7013 2.82063 32.8963 2.72897C33.0288 2.66647 33.1621 2.60814 33.2971 2.55147C33.3638 2.52314 33.4321 2.4998 33.4996 2.47314C32.9146 3.30188 32.4386 4.20229 32.0831 5.15228C31.444 4.98249 30.8171 4.76979 30.2066 4.51562L30.2208 4.50479ZM29.0259 5.79644C29.843 6.18748 30.6932 6.50508 31.5665 6.7456C31.1381 8.36132 30.8981 10.0213 30.8515 11.6922H26.702C26.8697 9.53871 27.6792 7.48497 29.0259 5.79644ZM26.702 13.3589H30.8515C30.8982 15.0298 31.1381 16.6898 31.5665 18.3055C30.6932 18.5463 29.8431 18.8639 29.0259 19.2547C27.679 17.5661 26.8695 15.5124 26.702 13.3589ZM33.2963 22.4988C33.163 22.4421 33.0288 22.3847 32.898 22.323C32.7013 22.2305 32.508 22.1297 32.3147 22.0255C32.1914 21.9588 32.0647 21.893 31.9473 21.8213C31.7481 21.7022 31.5556 21.5713 31.364 21.4405C31.2607 21.3697 31.1548 21.303 31.0532 21.228C30.8157 21.0522 30.5874 20.863 30.3633 20.6663C30.3166 20.6255 30.2666 20.5897 30.22 20.5472L30.2083 20.5355C30.8188 20.2814 31.4456 20.0687 32.0847 19.8988C32.4402 20.8488 32.9163 21.7492 33.5012 22.578C33.4329 22.5505 33.3638 22.5271 33.2963 22.4988ZM36.6626 23.1838C35.5619 22.7421 34.4961 21.4538 33.7129 19.523C34.688 19.3535 35.6735 19.2513 36.6626 19.2172V23.1838ZM36.6626 17.5497C35.4925 17.5879 34.327 17.7153 33.1763 17.9305C32.781 16.4372 32.5599 14.903 32.5172 13.3589H36.6626V17.5497ZM36.6626 11.6922H32.5172C32.56 10.1481 32.7809 8.61413 33.1755 7.1206C34.3262 7.33799 35.4921 7.46591 36.6626 7.5031V11.6922ZM36.6626 5.83394C35.6734 5.79894 34.6879 5.69592 33.7129 5.52561C34.4961 3.59729 35.5619 2.30897 36.6626 1.86731V5.83394ZM41.6945 2.5523C41.8286 2.60897 41.9628 2.66647 42.0936 2.72813C42.2903 2.82063 42.4836 2.92147 42.6769 3.02563C42.8002 3.0923 42.9269 3.15813 43.0443 3.2298C43.2435 3.34896 43.436 3.47979 43.6276 3.61063C43.7309 3.68146 43.8376 3.74813 43.9384 3.82313C44.175 3.99896 44.4025 4.18729 44.6258 4.38312C44.6733 4.42479 44.725 4.46145 44.7716 4.50395L44.7833 4.51562C44.1728 4.76968 43.546 4.98239 42.9069 5.15228C42.5513 4.20229 42.0753 3.30188 41.4903 2.47314C41.5587 2.50064 41.6278 2.52397 41.6945 2.5523ZM38.329 1.86731C39.4297 2.30897 40.4955 3.59729 41.2787 5.52811C40.3036 5.69759 39.3181 5.79978 38.329 5.83394V1.86731ZM38.329 7.5031C39.4992 7.46581 40.6648 7.33789 41.8153 7.1206C42.2106 8.61392 42.4317 10.1481 42.4744 11.6922H38.329V7.5031ZM38.329 13.3589H42.4744C42.4317 14.903 42.2106 16.4372 41.8153 17.9305C40.6646 17.7152 39.4991 17.5879 38.329 17.5497V13.3589V13.3589ZM38.329 23.1838V19.2172C39.3181 19.2513 40.3037 19.3535 41.2787 19.523C40.4955 21.4538 39.4297 22.7421 38.329 23.1838ZM44.7708 20.5463C44.7167 20.5955 44.6575 20.6372 44.6042 20.6855C44.3884 20.8738 44.1684 21.0572 43.9376 21.2272C43.8334 21.3038 43.7243 21.373 43.6176 21.4455C43.4293 21.5755 43.2393 21.703 43.0435 21.8197C42.921 21.893 42.7935 21.9597 42.6702 22.028C42.4811 22.1313 42.2903 22.2305 42.0953 22.3222C41.9628 22.3847 41.8295 22.443 41.6945 22.4997C41.6278 22.528 41.5595 22.5513 41.492 22.578C42.077 21.7492 42.553 20.8488 42.9085 19.8988C43.5476 20.0686 44.1745 20.2813 44.785 20.5355L44.7708 20.5463ZM45.9657 19.2547C45.1486 18.8636 44.2985 18.546 43.4251 18.3055C43.8535 16.6898 44.0935 15.0298 44.1401 13.3589H48.2896C48.1219 15.5123 47.3124 17.566 45.9657 19.2547ZM44.1401 11.6922C44.0935 10.0213 43.8535 8.36132 43.4251 6.7456C44.2984 6.50477 45.1485 6.18717 45.9657 5.79644C47.3126 7.48497 48.1221 9.53871 48.2896 11.6922H44.1401Z" fill="#009FFC"/>
</svg>
