<svg width="50" height="50" viewBox="0 0 50 50" fill="none" xmlns="http://www.w3.org/2000/svg">
<path d="M49.365 16.2059L33.1123 12.3135V5.51156H43.4243V7.07758H41.8871C41.4038 7.07758 41.012 7.4059 41.012 7.81118V10.8446C41.012 11.2499 41.4038 11.5782 41.8871 11.5782H46.7121C47.1955 11.5782 47.5873 11.2499 47.5873 10.8446V7.81128C47.5873 7.406 47.1955 7.07768 46.7121 7.07768H45.1746V5.51156H49.1247C49.5611 5.51156 49.9309 5.24202 49.9914 4.87972C50.052 4.51741 49.7848 4.17317 49.3651 4.07258L32.4981 0.033301C32.4972 0.033008 32.4962 0.0328127 32.4952 0.0326174L32.4775 0.0284181C32.4706 0.026758 32.4639 0.0258791 32.457 0.0244142C32.4383 0.0203126 32.4194 0.0164063 32.4002 0.013379C32.3862 0.0111329 32.3723 0.00966803 32.3583 0.00800786C32.3445 0.00634769 32.3307 0.00458987 32.3166 0.00351565C32.2973 0.00205079 32.2779 0.00146485 32.2586 0.00107423C32.2514 0.000781255 32.2444 0 32.2372 0H32.2184C32.2176 0 32.2167 0 32.2158 0H17.7844C17.7828 0 17.7812 0 17.7797 0H17.7626C17.7559 0 17.7494 0.000683598 17.7428 0.000878911C17.7227 0.00126954 17.7027 0.00185548 17.6827 0.00341799C17.6693 0.00439456 17.6561 0.00615238 17.6427 0.00771489C17.6283 0.00947271 17.6138 0.0109376 17.5991 0.0132813C17.5803 0.0163087 17.5617 0.0201173 17.5434 0.0241212C17.5363 0.0256837 17.5292 0.0265627 17.5221 0.0282228L17.5039 0.0326174C17.5032 0.0328127 17.5025 0.0329103 17.5018 0.0331057L0.634747 4.07258C0.215103 4.17317 -0.0520387 4.51741 0.00854291 4.87972C0.0691246 5.24202 0.438905 5.51156 0.875326 5.51156H4.82513V7.07758H3.28764C2.80427 7.07758 2.41247 7.4059 2.41247 7.81118V10.8446C2.41247 11.2499 2.80427 11.5782 3.28764 11.5782H8.11262C8.59599 11.5782 8.98779 11.2499 8.98779 10.8446V7.81128C8.98779 7.406 8.59599 7.07768 8.11262 7.07768H6.57524V5.51156H16.8874V12.3135L0.634747 16.2059C0.215103 16.3064 -0.0520387 16.6507 0.00854291 17.013C0.0691246 17.3753 0.438905 17.6448 0.875326 17.6448H4.82513V19.2109H3.28764C2.80427 19.2109 2.41247 19.5392 2.41247 19.9445V22.9779C2.41247 23.3831 2.80427 23.7115 3.28764 23.7115H8.11262C8.59599 23.7115 8.98779 23.3831 8.98779 22.9779V19.9445C8.98779 19.5392 8.59599 19.2109 8.11262 19.2109H6.57524V17.6448H16.8874V24.8973L13.3081 35.398C13.308 35.3984 13.3078 35.3988 13.3076 35.3992L13.3006 35.4196C13.3005 35.4199 13.3004 35.4203 13.3003 35.4206L13.2986 35.4254C13.2984 35.4263 13.2981 35.4272 13.2977 35.4279L9.86471 45.4993H8.11239C7.62902 45.4993 7.23722 45.8276 7.23722 46.2329V48.5328H5.44889C4.96552 48.5328 4.57372 48.8611 4.57372 49.2664C4.57372 49.6717 4.96552 50 5.44889 50H8.11262H41.8874H44.5509C45.0342 50 45.426 49.6717 45.426 49.2664C45.426 48.8611 45.0342 48.5328 44.5509 48.5328H42.7625V46.2329C42.7625 45.8276 42.3707 45.4993 41.8874 45.4993H40.1349L36.7022 35.4286C36.7017 35.4272 36.7011 35.4256 36.7006 35.4241L36.6927 35.4008C36.6923 35.3996 36.6919 35.3985 36.6916 35.3973L33.1125 24.8972V17.6447H43.4244V19.2108H41.8872C41.4039 19.2108 41.0121 19.5391 41.0121 19.9444V22.9778C41.0121 23.383 41.4039 23.7114 41.8872 23.7114H46.7122C47.1956 23.7114 47.5874 23.383 47.5874 22.9778V19.9445C47.5874 19.5392 47.1956 19.2109 46.7122 19.2109H45.1747V17.6448H49.1248C49.5612 17.6448 49.931 17.3753 49.9916 17.013C50.0518 16.6507 49.7845 16.3064 49.365 16.2059ZM45.8369 8.54487V10.1111H42.7623V8.54487H45.8369ZM33.1123 1.70626L42.8758 4.04446H33.1123V1.70626ZM7.23745 8.54487V10.1111H4.16281V8.54487H7.23745ZM7.23745 20.678V22.2442H4.16281V20.678H7.23745ZM18.6378 1.4672H31.362V4.04446H18.6378V1.4672ZM31.362 5.51156V11.4961L20.6528 5.51156H31.362V5.51156ZM18.6378 6.14877L29.3467 12.1332H18.6378V6.14877ZM18.6378 13.6004H31.362V16.1777H18.6378V13.6004ZM16.9203 34.8829L25 30.1421L33.0797 34.8829H16.9203ZM32.1489 36.3501L24.9999 39.3464L17.851 36.3501H32.1489ZM20.539 25.7336H29.4608L24.9999 28.351L20.539 25.7336ZM31.362 17.6448V23.6292L20.6529 17.6448H31.362ZM18.6378 18.2819L29.3471 24.2665H18.6378V18.2819ZM7.12386 4.04436L16.8874 1.70616V4.04436H7.12386ZM7.12386 16.1776L16.8874 13.8392V16.1776H7.12386ZM18.2667 26.1914L23.4738 29.2467L15.6632 33.8295L18.2667 26.1914ZM14.6956 36.6679L23.043 40.1664L11.9131 44.8312L14.6956 36.6679ZM39.4741 46.967H39.4743C39.4754 46.967 39.4766 46.9668 39.4776 46.9668H41.0123V48.5331H41.0122H8.98791V46.9668H10.5225C10.5237 46.9668 10.5247 46.967 10.5258 46.967C10.527 46.967 10.5284 46.9668 10.5297 46.9668H10.5423C10.5438 46.9668 10.5454 46.9668 10.547 46.9668H18.7897C19.273 46.9668 19.6648 46.6385 19.6648 46.2332C19.6648 45.8279 19.273 45.4996 18.7897 45.4996H14.2322L24.9999 40.9867L35.7676 45.4996H22.6915C22.2081 45.4996 21.8163 45.8279 21.8163 46.2332C21.8163 46.6385 22.2081 46.9668 22.6915 46.9668H39.4702C39.4714 46.9668 39.4728 46.967 39.4741 46.967ZM38.0867 44.8312L26.9568 40.1664L35.3041 36.6679L38.0867 44.8312ZM34.3367 33.8296L26.5259 29.2467L31.7331 26.1914L34.3367 33.8296ZM33.1123 16.1776V13.8393L42.8759 16.1776H33.1123ZM45.8369 20.678V22.2442H42.7623V20.678H45.8369Z" fill="#009FFC"/>
</svg>
