<svg width="50" height="40" viewBox="0 0 50 40" fill="none" xmlns="http://www.w3.org/2000/svg">
<path d="M45.427 20.612V10.9156C45.427 6.89921 42.9654 3.64331 39.9288 3.64331C36.8923 3.64331 34.4307 6.89921 34.4307 10.9156V20.612C34.4307 24.6284 36.8923 27.8843 39.9288 27.8843C42.9654 27.8843 45.427 24.6284 45.427 20.612Z" fill="#BDDBFF"/>
<path d="M49.9998 19.3951H48.1671C48.1671 25.4196 44.4748 30.3036 39.9198 30.3036C35.3649 30.3036 31.6726 25.4199 31.6726 19.3951H29.8398C29.8468 26.2842 33.8172 32.0341 39.0035 32.6658V40H40.8362V32.6658C46.0227 32.0341 49.9929 26.2842 49.9998 19.3951V19.3951Z" fill="#009FFC"/>
<path d="M39.9199 27.8796C43.461 27.8742 46.3304 24.0789 46.3345 19.3952V9.69882C46.3345 5.01308 43.4625 1.21448 39.9199 1.21448C36.3773 1.21448 33.5054 5.01308 33.5054 9.69882V19.3952C33.5094 24.0789 36.3791 27.8742 39.9199 27.8796ZM35.3381 9.69882C35.3381 6.35178 37.3894 3.63858 39.9199 3.63858C42.4504 3.63858 44.5017 6.35178 44.5017 9.69882V19.3952C44.5017 22.7423 42.4504 25.4555 39.9199 25.4555C37.3894 25.4555 35.3381 22.7423 35.3381 19.3952V9.69882Z" fill="#009FFC"/>
<path d="M28.9318 14.7427C28.6538 14.5257 28.3086 14.5185 28.0235 14.7213L22.0357 19.0406V15.7875C22.0357 15.1163 21.625 14.5731 21.1176 14.5731H20.0924C21.288 13.0283 22.0358 10.8806 22.0358 8.50096C22.0357 3.81403 19.1522 0 15.6087 0C12.9831 0 10.727 2.0993 9.73054 5.09071C8.71924 3.47873 7.21282 2.42885 5.50895 2.42885C2.47112 2.42885 0 5.69734 0 9.71539C0 11.7391 0.628755 13.5699 1.63917 14.8915C0.675647 15.4594 0 16.7332 0 18.2164V35.2183C0 37.2273 1.23559 38.8616 2.75447 38.8616H21.1176C21.625 38.8616 22.0357 38.3183 22.0357 37.6471V34.394L28.0235 38.7133C28.1607 38.8117 28.3113 38.8615 28.4628 38.8615C28.6251 38.8615 28.7874 38.8046 28.9318 38.6919C29.2097 38.4725 29.381 38.0752 29.381 37.6471V15.7874C29.381 15.3593 29.2098 14.962 28.9318 14.7427V14.7427ZM15.6086 2.42885C18.1399 2.42885 20.1994 5.15296 20.1994 8.50096C20.1994 11.849 18.1399 14.5731 15.6086 14.5731C13.0774 14.5731 11.0179 11.849 11.0179 8.50096C11.0179 5.15296 13.0775 2.42885 15.6086 2.42885ZM11.1249 14.5731H9.58504C9.8567 14.1744 10.0894 13.7359 10.29 13.2652C10.5337 13.7393 10.8159 14.1737 11.1249 14.5731V14.5731ZM5.50895 4.85769C7.53448 4.85769 9.18158 7.03627 9.18158 9.71539C9.18158 12.3945 7.53448 14.5731 5.50895 14.5731C3.48342 14.5731 1.83632 12.3945 1.83632 9.71539C1.83632 7.03627 3.48342 4.85769 5.50895 4.85769ZM27.5447 35.6013L21.5569 31.282C21.2718 31.078 20.9266 31.084 20.6487 31.3034C20.3707 31.5228 20.1994 31.9201 20.1994 32.3482V36.4326H2.75447C2.24789 36.4326 1.83632 35.8883 1.83632 35.2182V18.2163C1.83632 17.5462 2.24789 17.0019 2.75447 17.0019H20.1994V21.0863C20.1994 21.5144 20.3707 21.9117 20.6487 22.1311C20.9284 22.3481 21.2736 22.3564 21.5569 22.1525L27.5447 17.8333V35.6013Z" fill="#009FFC"/>
</svg>
