<svg width="50" height="50" viewBox="0 0 50 50" fill="none" xmlns="http://www.w3.org/2000/svg">
<path d="M30.3611 14.7869C31.0323 14.2436 31.495 13.5794 31.7021 12.8622C31.9091 12.145 31.8531 11.4003 31.5398 10.7041C31.2265 10.008 30.667 9.38515 29.9185 8.89922C29.1699 8.41329 28.259 8.08161 27.2787 7.938V4.99073C27.2787 4.76967 27.1589 4.55767 26.9457 4.40135C26.7326 4.24504 26.4435 4.15723 26.142 4.15723C25.8406 4.15723 25.5515 4.24504 25.3383 4.40135C25.1252 4.55767 25.0054 4.76967 25.0054 4.99073V7.938C24.0251 8.08161 23.1142 8.41329 22.3656 8.89922C21.6171 9.38515 21.0576 10.008 20.7443 10.7041C20.431 11.4003 20.375 12.145 20.582 12.8622C20.7891 13.5794 21.2518 14.2436 21.923 14.7869L14.4873 30.4651H14.4953C14.4072 30.6448 14.4072 30.8414 14.4953 31.0211C14.5745 31.1812 14.7187 31.3197 14.9085 31.4179C15.0983 31.5161 15.3246 31.5693 15.5568 31.5703L35.9578 31.6629L43.1468 46.8193L37.948 43.902C37.8301 43.8308 37.6939 43.7777 37.5475 43.7459C37.4011 43.7141 37.2474 43.7043 37.0957 43.717C36.944 43.7298 36.7973 43.7648 36.6644 43.82C36.5316 43.8752 36.4153 43.9495 36.3224 44.0385C36.2296 44.1274 36.1622 44.2291 36.1241 44.3376C36.0861 44.446 36.0783 44.559 36.1011 44.6697C36.1239 44.7805 36.1769 44.8867 36.257 44.982C36.337 45.0774 36.4425 45.16 36.567 45.2248L44.7744 49.8274C44.9685 49.9358 45.2051 49.9955 45.449 49.9977C45.693 49.9999 45.9314 49.9444 46.1291 49.8396C46.3268 49.7347 46.4732 49.586 46.5467 49.4154C46.6202 49.2448 46.6169 49.0613 46.5373 48.8922L30.3611 14.7869ZM26.142 22.661L23.7199 19.9938H28.5653L26.142 22.661ZM24.6349 24.008L18.0005 28.1321L21.5604 20.6306L24.6349 24.008ZM22.6504 18.3268L23.8381 15.8263C24.5617 16.0674 25.3473 16.1921 26.142 16.1921C26.9368 16.1921 27.7224 16.0674 28.4459 15.8263L29.6337 18.3268H22.6504ZM26.142 9.52083C26.8438 9.51862 27.5293 9.676 28.104 9.9713C28.6788 10.2666 29.1146 10.6853 29.3514 11.1698C29.5883 11.6542 29.6145 12.1806 29.4265 12.6764C29.2384 13.1722 28.8455 13.6131 28.3016 13.9384L28.2857 13.9484C27.6853 14.3177 26.9268 14.5201 26.1432 14.5201C25.3596 14.5201 24.601 14.3177 24.0007 13.9484L23.9848 13.9384C23.4409 13.6131 23.0479 13.1722 22.8599 12.6764C22.6719 12.1806 22.6981 11.6542 22.9349 11.1698C23.1718 10.6853 23.6076 10.2666 24.1823 9.9713C24.7571 9.676 25.4425 9.51862 26.1443 9.52083H26.142ZM18.6405 29.9183L26.1284 25.2649L33.3652 29.9825L18.6405 29.9183ZM27.6401 24.0205L30.7271 20.6248L34.4393 28.453L27.6401 24.0205Z" fill="#009FFC"/>
<path d="M16.9686 17.9151C17.183 18.0669 17.4701 18.1509 17.7681 18.149C18.0661 18.1471 18.3512 18.0594 18.5619 17.9049C18.7727 17.7504 18.8922 17.5413 18.8948 17.3228C18.8974 17.1042 18.7828 16.8937 18.5758 16.7365C17.7314 16.1173 17.0616 15.3822 16.6046 14.5732C16.1476 13.7642 15.9124 12.897 15.9124 12.0214C15.9124 11.1457 16.1476 10.2786 16.6046 9.46953C17.0616 8.66051 17.7314 7.92541 18.5758 7.30623C18.7828 7.14902 18.8974 6.93848 18.8948 6.71994C18.8922 6.5014 18.7727 6.29234 18.5619 6.1378C18.3512 5.98327 18.0661 5.89561 17.7681 5.89371C17.4701 5.89181 17.183 5.97582 16.9686 6.12765C14.8371 7.69077 13.6396 9.81079 13.6396 12.0214C13.6396 14.2319 14.8371 16.3519 16.9686 17.9151V17.9151Z" fill="#009FFC"/>
<path d="M33.7083 17.9151C33.9214 18.0713 34.2105 18.1591 34.5119 18.1591C34.8132 18.1591 35.1023 18.0713 35.3154 17.9151C37.4469 16.3519 38.6444 14.2319 38.6444 12.0214C38.6444 9.81079 37.4469 7.69077 35.3154 6.12765C35.1011 5.97582 34.814 5.89181 34.5159 5.89371C34.2179 5.89561 33.9329 5.98327 33.7221 6.1378C33.5114 6.29234 33.3918 6.5014 33.3893 6.71994C33.3867 6.93848 33.5012 7.14902 33.7083 7.30623C34.5527 7.92541 35.2225 8.66051 35.6795 9.46953C36.1365 10.2786 36.3717 11.1457 36.3717 12.0214C36.3717 12.897 36.1365 13.7642 35.6795 14.5732C35.2225 15.3822 34.5527 16.1173 33.7083 16.7365C33.4952 16.8928 33.3755 17.1048 33.3755 17.3258C33.3755 17.5468 33.4952 17.7588 33.7083 17.9151V17.9151Z" fill="#009FFC"/>
<path d="M12.9504 20.8623C13.1647 21.0141 13.4519 21.0982 13.7499 21.0963C14.0479 21.0944 14.333 21.0067 14.5437 20.8522C14.7544 20.6976 14.874 20.4886 14.8766 20.27C14.8791 20.0515 14.7646 19.8409 14.5575 19.6837C11.7906 17.6499 10.2366 14.8943 10.2366 12.0213C10.2366 9.1484 11.7906 6.39277 14.5575 4.35894C14.6661 4.28205 14.7527 4.19008 14.8123 4.08839C14.8718 3.98669 14.9032 3.87732 14.9045 3.76665C14.9058 3.65598 14.877 3.54622 14.8199 3.44379C14.7627 3.34135 14.6783 3.24829 14.5716 3.17003C14.4649 3.09177 14.338 3.02988 14.1983 2.98797C14.0586 2.94606 13.909 2.92497 13.7581 2.92593C13.6071 2.9269 13.458 2.94989 13.3193 2.99357C13.1806 3.03726 13.0552 3.10075 12.9504 3.18036C9.75751 5.52691 7.96436 8.70644 7.96436 12.0213C7.96436 15.3362 9.75751 18.5158 12.9504 20.8623V20.8623Z" fill="#009FFC"/>
<path d="M37.7264 19.6838C37.6178 19.7607 37.5312 19.8526 37.4717 19.9543C37.4121 20.056 37.3807 20.1654 37.3794 20.2761C37.3781 20.3867 37.4069 20.4965 37.464 20.5989C37.5212 20.7013 37.6056 20.7944 37.7123 20.8727C37.819 20.9509 37.9459 21.0128 38.0856 21.0547C38.2253 21.0966 38.375 21.1177 38.5259 21.1168C38.6768 21.1158 38.8259 21.0928 38.9646 21.0491C39.1033 21.0054 39.2287 20.9419 39.3335 20.8623C42.5264 18.5158 44.3196 15.3363 44.3196 12.0214C44.3196 8.70646 42.5264 5.52694 39.3335 3.18039C39.1192 3.02856 38.8321 2.94454 38.5341 2.94644C38.236 2.94834 37.951 3.036 37.7402 3.19054C37.5295 3.34508 37.41 3.55413 37.4074 3.77267C37.4048 3.99121 37.5193 4.20176 37.7264 4.35896C40.4934 6.39279 42.0473 9.14843 42.0473 12.0214C42.0473 14.8943 40.4934 17.6499 37.7264 19.6838V19.6838Z" fill="#009FFC"/>
<path d="M9.73486 24.053C9.95962 24.053 10.1793 24.0041 10.3662 23.9125C10.5531 23.8209 10.6987 23.6907 10.7847 23.5385C10.8707 23.3862 10.8932 23.2186 10.8494 23.057C10.8056 22.8953 10.6973 22.7468 10.5384 22.6302C6.70744 19.8143 4.55595 15.9991 4.55595 12.0214C4.55595 8.04371 6.70744 4.22845 10.5384 1.41255C10.7455 1.25535 10.86 1.0448 10.8575 0.826261C10.8549 0.607719 10.7353 0.398666 10.5246 0.244128C10.3139 0.0895893 10.0288 0.00193058 9.73077 3.15087e-05C9.43276 -0.00186756 9.14565 0.0821449 8.93128 0.233974C4.67439 3.36259 2.28369 7.60175 2.28369 12.0214C2.28369 16.441 4.67439 20.6802 8.93128 23.8088C9.14438 23.9651 9.43344 24.053 9.73486 24.053V24.053Z" fill="#009FFC"/>
<path d="M41.7454 22.6302C41.6369 22.7071 41.5503 22.7991 41.4907 22.9008C41.4311 23.0025 41.3998 23.1118 41.3985 23.2225C41.3972 23.3332 41.4259 23.4429 41.4831 23.5454C41.5402 23.6478 41.6246 23.7409 41.7313 23.8191C41.8381 23.8974 41.965 23.9593 42.1046 24.0012C42.2443 24.0431 42.394 24.0642 42.5449 24.0632C42.6958 24.0623 42.845 24.0393 42.9837 23.9956C43.1223 23.9519 43.2477 23.8884 43.3526 23.8088C47.6095 20.6802 50.0002 16.441 50.0002 12.0214C50.0002 7.60175 47.6095 3.36259 43.3526 0.233974C43.1382 0.0821449 42.8511 -0.00186756 42.5531 3.15087e-05C42.2551 0.00193058 41.97 0.0895893 41.7593 0.244128C41.5485 0.398666 41.429 0.607719 41.4264 0.826261C41.4238 1.0448 41.5384 1.25535 41.7454 1.41255C45.5764 4.22845 47.7279 8.04371 47.7279 12.0214C47.7279 15.9991 45.5764 19.8143 41.7454 22.6302V22.6302Z" fill="#009FFC"/>
<path d="M32.9616 33.3299H6.81963V32.343C7.57799 32.1464 8.21715 31.7595 8.62414 31.2507C9.03114 30.7419 9.17976 30.144 9.04374 29.5627C8.90772 28.9813 8.49582 28.4539 7.88084 28.0737C7.26585 27.6935 6.48739 27.485 5.68303 27.485C4.87867 27.485 4.1002 27.6935 3.48522 28.0737C2.87024 28.4539 2.45834 28.9813 2.32232 29.5627C2.1863 30.144 2.33492 30.7419 2.74191 31.2507C3.1489 31.7595 3.78806 32.1464 4.54642 32.343V33.3299H1.13661C0.835159 33.3299 0.546059 33.4177 0.332904 33.574C0.119749 33.7303 0 33.9423 0 34.1634V37.4974C0 37.7185 0.119749 37.9305 0.332904 38.0868C0.546059 38.2431 0.835159 38.3309 1.13661 38.3309C1.43805 38.3309 1.72715 38.2431 1.94031 38.0868C2.15346 37.9305 2.27321 37.7185 2.27321 37.4974V34.9969H31.825V38.3309H19.3223C19.0208 38.3309 18.7317 38.4187 18.5186 38.575C18.3054 38.7313 18.1857 38.9433 18.1857 39.1644V44.1654C18.1857 44.3865 18.3054 44.5985 18.5186 44.7548C18.7317 44.9111 19.0208 44.9989 19.3223 44.9989H27.2785C27.58 44.9989 27.8691 44.9111 28.0822 44.7548C28.2954 44.5985 28.4151 44.3865 28.4151 44.1654C28.4151 43.9444 28.2954 43.7324 28.0822 43.576C27.8691 43.4197 27.58 43.3319 27.2785 43.3319H20.4589V39.9979H24.5859L31.825 44.5488V48.3329H15.9125V39.1644C15.9125 38.9433 15.7927 38.7313 15.5796 38.575C15.3664 38.4187 15.0773 38.3309 14.7759 38.3309H5.68303C5.38158 38.3309 5.09248 38.4187 4.87933 38.575C4.66617 38.7313 4.54642 38.9433 4.54642 39.1644V45.8324C4.54642 46.0535 4.66617 46.2655 4.87933 46.4218C5.09248 46.5781 5.38158 46.6659 5.68303 46.6659C5.98447 46.6659 6.27357 46.5781 6.48673 46.4218C6.69988 46.2655 6.81963 46.0535 6.81963 45.8324V39.9979H13.6393V42.4984H12.5027C12.2012 42.4984 11.9121 42.5862 11.699 42.7425C11.4858 42.8989 11.3661 43.1109 11.3661 43.3319C11.3661 43.553 11.4858 43.765 11.699 43.9213C11.9121 44.0776 12.2012 44.1654 12.5027 44.1654H13.6393V48.3329H2.27321V40.8314C2.27321 40.6103 2.15346 40.3983 1.94031 40.242C1.72715 40.0857 1.43805 39.9979 1.13661 39.9979C0.835159 39.9979 0.546059 40.0857 0.332904 40.242C0.119749 40.3983 0 40.6103 0 40.8314V49.1664C0 49.3875 0.119749 49.5995 0.332904 49.7558C0.546059 49.9121 0.835159 50 1.13661 50H32.9616C33.263 50 33.5521 49.9121 33.7653 49.7558C33.9784 49.5995 34.0982 49.3875 34.0982 49.1664V34.1634C34.0982 33.9423 33.9784 33.7303 33.7653 33.574C33.5521 33.4177 33.263 33.3299 32.9616 33.3299ZM5.68303 29.1624C5.90783 29.1624 6.12758 29.2112 6.31449 29.3028C6.50141 29.3944 6.64709 29.5246 6.73311 29.6769C6.81914 29.8292 6.84165 29.9968 6.79779 30.1585C6.75394 30.3201 6.64569 30.4687 6.48673 30.5852C6.32777 30.7018 6.12525 30.7812 5.90477 30.8133C5.68429 30.8455 5.45576 30.829 5.24807 30.7659C5.04038 30.7028 4.86287 30.596 4.73798 30.4589C4.61308 30.3219 4.54642 30.1607 4.54642 29.9959C4.54642 29.7748 4.66617 29.5628 4.87933 29.4065C5.09248 29.2502 5.38158 29.1624 5.68303 29.1624V29.1624ZM28.0742 39.9979H31.825V42.3534L28.0742 39.9979Z" fill="#009FFC"/>
</svg>
