<svg width="50" height="50" viewBox="0 0 50 50" fill="none" xmlns="http://www.w3.org/2000/svg">
<g clip-path="url(#clip0)">
<path d="M48.9583 47.9167H1.0417C0.466699 47.9167 0 48.3833 0 48.9583C0 49.5333 0.466699 50 1.0417 50H48.9584C49.5334 50 50.0001 49.5333 50.0001 48.9583C50 48.3833 49.5333 47.9167 48.9583 47.9167Z" fill="#009FFC"/>
<path d="M9.37495 35.4167H3.12495C2.54995 35.4167 2.08325 35.8834 2.08325 36.4584V48.9584C2.08325 49.5333 2.54995 50 3.12495 50H9.37495C9.94995 50 10.4167 49.5333 10.4167 48.9583V36.4583C10.4167 35.8833 9.94995 35.4167 9.37495 35.4167ZM8.33325 47.9167H4.16665V37.5H8.33335V47.9167H8.33325Z" fill="#009FFC"/>
<path d="M21.875 25H15.625C15.05 25 14.5833 25.4667 14.5833 26.0417V48.9584C14.5833 49.5334 15.05 50.0001 15.625 50.0001H21.875C22.45 50.0001 22.9167 49.5334 22.9167 48.9584V26.0417C22.9167 25.4667 22.45 25 21.875 25ZM20.8333 47.9167H16.6666V27.0833H20.8333V47.9167Z" fill="#009FFC"/>
<path d="M34.375 29.1667H28.125C27.55 29.1667 27.0833 29.6334 27.0833 30.2084V48.9584C27.0833 49.5334 27.55 50.0001 28.125 50.0001H34.375C34.95 50.0001 35.4166 49.5334 35.4166 48.9584V30.2084C35.4166 29.6333 34.95 29.1667 34.375 29.1667ZM33.3333 47.9167H29.1666V31.25H33.3333V47.9167Z" fill="#009FFC"/>
<path d="M46.875 16.6667H40.625C40.05 16.6667 39.5833 17.1334 39.5833 17.7084V48.9584C39.5833 49.5334 40.05 50.0001 40.625 50.0001H46.875C47.45 50.0001 47.9166 49.5334 47.9166 48.9584V17.7084C47.9166 17.1333 47.45 16.6667 46.875 16.6667ZM45.8333 47.9167H41.6666V18.75H45.8333V47.9167Z" fill="#009FFC"/>
<path d="M6.24995 18.75C3.952 18.75 2.08325 20.6188 2.08325 22.9167C2.08325 25.2146 3.952 27.0834 6.24995 27.0834C8.5479 27.0834 10.4167 25.2146 10.4167 22.9167C10.4167 20.6188 8.5479 18.75 6.24995 18.75ZM6.24995 25C5.09995 25 4.16665 24.0646 4.16665 22.9167C4.16665 21.7688 5.09995 20.8334 6.24995 20.8334C7.39995 20.8334 8.33325 21.7688 8.33325 22.9167C8.33325 24.0646 7.39995 25 6.24995 25Z" fill="#009FFC"/>
<path d="M18.75 8.33328C16.452 8.33328 14.5833 10.202 14.5833 12.5C14.5833 14.7979 16.452 16.6667 18.75 16.6667C21.0479 16.6667 22.9167 14.7979 22.9167 12.5C22.9167 10.202 21.0479 8.33328 18.75 8.33328ZM18.75 14.5833C17.6 14.5833 16.6667 13.6478 16.6667 12.5C16.6667 11.352 17.6 10.4167 18.75 10.4167C19.9 10.4167 20.8333 11.3521 20.8333 12.5C20.8333 13.6479 19.9 14.5833 18.75 14.5833Z" fill="#009FFC"/>
<path d="M31.25 12.5C28.952 12.5 27.0833 14.3688 27.0833 16.6667C27.0833 18.9646 28.952 20.8334 31.25 20.8334C33.5479 20.8334 35.4166 18.9646 35.4166 16.6667C35.4166 14.3688 33.5479 12.5 31.25 12.5ZM31.25 18.75C30.1 18.75 29.1666 17.8146 29.1666 16.6667C29.1666 15.5188 30.1 14.5834 31.25 14.5834C32.4 14.5834 33.3333 15.5188 33.3333 16.6667C33.3333 17.8146 32.4 18.75 31.25 18.75Z" fill="#009FFC"/>
<path d="M43.75 0C41.452 0 39.5833 1.86875 39.5833 4.1667C39.5833 6.46465 41.452 8.3334 43.75 8.3334C46.0479 8.3334 47.9166 6.46465 47.9166 4.1667C47.9166 1.86875 46.0479 0 43.75 0ZM43.75 6.25C42.6 6.25 41.6666 5.31455 41.6666 4.1667C41.6666 3.01875 42.6 2.0834 43.75 2.0834C44.9 2.0834 45.8333 3.01885 45.8333 4.1667C45.8333 5.31455 44.9 6.25 43.75 6.25Z" fill="#009FFC"/>
<path d="M42.2794 5.63748C41.8731 5.23123 41.2127 5.23123 40.8064 5.63748L32.7231 13.7208C32.3169 14.127 32.3169 14.7875 32.7231 15.1937C32.9273 15.3958 33.1939 15.4979 33.4606 15.4979C33.7252 15.4979 33.9919 15.3979 34.1961 15.1937L42.2794 7.11043C42.6857 6.70418 42.6857 6.04373 42.2794 5.63748Z" fill="#009FFC"/>
<path d="M28.7312 14.2625L22.0395 12.3542C21.479 12.1917 20.9103 12.5167 20.754 13.0709C20.5957 13.6251 20.9165 14.2001 21.4686 14.3584L28.1603 16.2667C28.2561 16.2937 28.352 16.3062 28.4457 16.3062C28.8999 16.3062 29.3165 16.0083 29.4478 15.55C29.6062 14.9979 29.2854 14.4208 28.7312 14.2625Z" fill="#009FFC"/>
<path d="M17.125 13.798C16.7667 13.348 16.1125 13.275 15.6625 13.6313L7.80834 19.8938C7.35833 20.2542 7.28334 20.9083 7.64378 21.3583C7.85003 21.6166 8.15423 21.75 8.45834 21.75C8.68539 21.75 8.91459 21.675 9.10629 21.525L16.9605 15.2625C17.4105 14.9021 17.4855 14.248 17.125 13.798Z" fill="#009FFC"/>
</g>
<defs>
<clipPath id="clip0">
<rect width="50" height="50" fill="white"/>
</clipPath>
</defs>
</svg>
