<?xml version="1.0" encoding="iso-8859-1"?>
<!-- Generator: Adobe Illustrator 21.0.0, SVG Export Plug-In . SVG Version: 6.00 Build 0)  -->
<svg version="1.1" id="Capa_1" xmlns="http://www.w3.org/2000/svg" xmlns:xlink="http://www.w3.org/1999/xlink" x="0px" y="0px"
	 viewBox="0 0 591.146 591.146" style="enable-background:new 0 0 591.146 591.146;" xml:space="preserve">
<g>
	<g>
		<g id="filled_outline_1_">
			<path style="fill:#4398D1;" d="M29.557,9.852h532.031c10.887,0,19.705,8.818,19.705,19.705v118.229
				c0,10.887-8.818,19.705-19.705,19.705H29.557c-10.887,0-19.705-8.818-19.705-19.705V29.557C9.852,18.67,18.67,9.852,29.557,9.852
				z"/>
			<path style="fill:#3E8CC7;" d="M561.589,9.852H364.54L206.901,167.491h354.688c10.887,0,19.705-8.818,19.705-19.705V29.557
				C581.293,18.67,572.476,9.852,561.589,9.852z"/>
			<circle style="fill:#88B337;" cx="522.179" cy="88.672" r="19.705"/>
			<circle style="fill:#88B337;" cx="443.359" cy="88.672" r="19.705"/>
			<circle style="fill:#88B337;" cx="364.54" cy="88.672" r="19.705"/>
			<rect x="39.41" y="98.524" style="fill:#126099;" width="19.705" height="39.41"/>
			<rect x="78.819" y="98.524" style="fill:#126099;" width="19.705" height="39.41"/>
			<rect x="118.229" y="98.524" style="fill:#126099;" width="19.705" height="39.41"/>
			<rect x="157.639" y="98.524" style="fill:#126099;" width="19.705" height="39.41"/>
			<rect x="197.049" y="98.524" style="fill:#126099;" width="19.705" height="39.41"/>
			<rect x="236.458" y="98.524" style="fill:#126099;" width="19.705" height="39.41"/>
			<rect x="39.41" y="39.41" style="fill:#126099;" width="19.705" height="39.41"/>
			<rect x="78.819" y="39.41" style="fill:#126099;" width="19.705" height="39.41"/>
			<rect x="118.229" y="39.41" style="fill:#126099;" width="19.705" height="39.41"/>
			<rect x="157.639" y="39.41" style="fill:#126099;" width="19.705" height="39.41"/>
			<rect x="197.049" y="39.41" style="fill:#126099;" width="19.705" height="39.41"/>
			<rect x="236.458" y="39.41" style="fill:#126099;" width="19.705" height="39.41"/>
			<polygon style="fill:#87CED9;" points="443.359,206.901 354.688,295.573 403.95,295.573 403.95,384.245 482.769,384.245 
				482.769,295.573 532.031,295.573 			"/>
			<polygon style="fill:#87CED9;" points="147.786,384.245 236.458,295.573 187.196,295.573 187.196,206.901 108.377,206.901 
				108.377,295.573 59.115,295.573 			"/>
			<path style="fill:#4398D1;" d="M29.557,423.655h532.031c10.887,0,19.705,8.818,19.705,19.705v118.229
				c0,10.887-8.818,19.705-19.705,19.705H29.557c-10.887,0-19.705-8.818-19.705-19.705V443.359
				C9.852,432.472,18.67,423.655,29.557,423.655z"/>
			<path style="fill:#3E8CC7;" d="M561.589,423.655H364.54L206.901,581.293h354.688c10.887,0,19.705-8.818,19.705-19.705V443.359
				C581.293,432.472,572.476,423.655,561.589,423.655z"/>
			<circle style="fill:#88B337;" cx="522.179" cy="502.474" r="19.705"/>
			<circle style="fill:#88B337;" cx="443.359" cy="502.474" r="19.705"/>
			<circle style="fill:#88B337;" cx="364.54" cy="502.474" r="19.705"/>
			<rect x="39.41" y="512.326" style="fill:#126099;" width="19.705" height="39.41"/>
			<rect x="78.819" y="512.326" style="fill:#126099;" width="19.705" height="39.41"/>
			<rect x="118.229" y="512.326" style="fill:#126099;" width="19.705" height="39.41"/>
			<rect x="157.639" y="512.326" style="fill:#126099;" width="19.705" height="39.41"/>
			<rect x="197.049" y="512.326" style="fill:#126099;" width="19.705" height="39.41"/>
			<rect x="236.458" y="512.326" style="fill:#126099;" width="19.705" height="39.41"/>
			<rect x="39.41" y="453.212" style="fill:#126099;" width="19.705" height="39.41"/>
			<rect x="78.819" y="453.212" style="fill:#126099;" width="19.705" height="39.41"/>
			<rect x="118.229" y="453.212" style="fill:#126099;" width="19.705" height="39.41"/>
			<rect x="157.639" y="453.212" style="fill:#126099;" width="19.705" height="39.41"/>
			<rect x="197.049" y="453.212" style="fill:#126099;" width="19.705" height="39.41"/>
			<rect x="236.458" y="453.212" style="fill:#126099;" width="19.705" height="39.41"/>
			<polygon style="fill:#71C4D1;" points="187.196,256.163 103.451,339.909 147.786,384.245 236.458,295.573 187.196,295.573 			"/>
			<polygon style="fill:#71C4D1;" points="403.95,344.835 403.95,384.245 482.769,384.245 482.769,295.573 532.031,295.573 
				492.622,256.163 			"/>
			<path d="M561.589,0H29.557C13.232,0,0,13.232,0,29.557v118.229c0,16.325,13.232,29.557,29.557,29.557h532.031
				c16.326,0,29.557-13.232,29.557-29.557V29.557C591.146,13.232,577.914,0,561.589,0z M571.441,147.786
				c0,5.439-4.414,9.852-9.852,9.852H29.557c-5.439,0-9.852-4.414-9.852-9.852V29.557c0-5.439,4.414-9.852,9.852-9.852h532.031
				c5.439,0,9.852,4.414,9.852,9.852V147.786z"/>
			<path d="M522.179,59.115c-16.325,0-29.557,13.232-29.557,29.557s13.232,29.557,29.557,29.557
				c16.326,0,29.557-13.232,29.557-29.557S538.504,59.115,522.179,59.115z M522.179,98.524c-5.439,0-9.852-4.414-9.852-9.852
				c0-5.439,4.414-9.852,9.852-9.852s9.852,4.414,9.852,9.852C532.031,94.11,527.617,98.524,522.179,98.524z"/>
			<path d="M443.359,59.115c-16.326,0-29.557,13.232-29.557,29.557s13.232,29.557,29.557,29.557
				c16.325,0,29.557-13.232,29.557-29.557S459.685,59.115,443.359,59.115z M443.359,98.524c-5.439,0-9.852-4.414-9.852-9.852
				c0-5.439,4.414-9.852,9.852-9.852c5.439,0,9.852,4.414,9.852,9.852C453.212,94.11,448.798,98.524,443.359,98.524z"/>
			<path d="M364.54,59.115c-16.326,0-29.557,13.232-29.557,29.557s13.232,29.557,29.557,29.557s29.557-13.232,29.557-29.557
				S380.865,59.115,364.54,59.115z M364.54,98.524c-5.439,0-9.852-4.414-9.852-9.852c0-5.439,4.414-9.852,9.852-9.852
				c5.439,0,9.852,4.414,9.852,9.852C374.392,94.11,369.978,98.524,364.54,98.524z"/>
			<rect x="39.41" y="98.524" width="19.705" height="39.41"/>
			<rect x="78.819" y="98.524" width="19.705" height="39.41"/>
			<rect x="118.229" y="98.524" width="19.705" height="39.41"/>
			<rect x="157.639" y="98.524" width="19.705" height="39.41"/>
			<rect x="197.049" y="98.524" width="19.705" height="39.41"/>
			<rect x="236.458" y="98.524" width="19.705" height="39.41"/>
			<rect x="39.41" y="39.41" width="19.705" height="39.41"/>
			<rect x="78.819" y="39.41" width="19.705" height="39.41"/>
			<rect x="118.229" y="39.41" width="19.705" height="39.41"/>
			<rect x="157.639" y="39.41" width="19.705" height="39.41"/>
			<rect x="197.049" y="39.41" width="19.705" height="39.41"/>
			<rect x="236.458" y="39.41" width="19.705" height="39.41"/>
			<path d="M561.589,413.802H29.557C13.232,413.802,0,427.034,0,443.359v118.229c0,16.326,13.232,29.557,29.557,29.557h532.031
				c16.326,0,29.557-13.232,29.557-29.557V443.359C591.146,427.034,577.914,413.802,561.589,413.802z M571.441,561.589
				c0,5.439-4.414,9.852-9.852,9.852H29.557c-5.439,0-9.852-4.414-9.852-9.852V443.359c0-5.439,4.414-9.852,9.852-9.852h532.031
				c5.439,0,9.852,4.414,9.852,9.852V561.589z"/>
			<path d="M522.179,472.917c-16.325,0-29.557,13.232-29.557,29.557c0,16.326,13.232,29.557,29.557,29.557
				c16.326,0,29.557-13.232,29.557-29.557C551.736,486.148,538.504,472.917,522.179,472.917z M522.179,512.326
				c-5.439,0-9.852-4.414-9.852-9.852c0-5.439,4.414-9.852,9.852-9.852s9.852,4.414,9.852,9.852
				C532.031,507.913,527.617,512.326,522.179,512.326z"/>
			<path d="M443.359,472.917c-16.326,0-29.557,13.232-29.557,29.557c0,16.326,13.232,29.557,29.557,29.557
				c16.325,0,29.557-13.232,29.557-29.557C472.917,486.148,459.685,472.917,443.359,472.917z M443.359,512.326
				c-5.439,0-9.852-4.414-9.852-9.852c0-5.439,4.414-9.852,9.852-9.852c5.439,0,9.852,4.414,9.852,9.852
				C453.212,507.913,448.798,512.326,443.359,512.326z"/>
			<path d="M364.54,472.917c-16.326,0-29.557,13.232-29.557,29.557c0,16.326,13.232,29.557,29.557,29.557
				s29.557-13.232,29.557-29.557C394.097,486.148,380.865,472.917,364.54,472.917z M364.54,512.326
				c-5.439,0-9.852-4.414-9.852-9.852c0-5.439,4.414-9.852,9.852-9.852c5.439,0,9.852,4.414,9.852,9.852
				C374.392,507.913,369.978,512.326,364.54,512.326z"/>
			<path d="M403.95,394.097h78.819c5.439,0,9.852-4.414,9.852-9.852v-78.819h39.41c5.439,0,9.852-4.414,9.852-9.852
				c0-2.611-1.035-5.113-2.887-6.966l-88.672-88.672c-3.842-3.842-10.089-3.842-13.931,0l-88.672,88.672
				c-3.842,3.852-3.842,10.089,0,13.931c1.852,1.852,4.355,2.887,6.966,2.887h39.41v78.819
				C394.097,389.683,398.511,394.097,403.95,394.097z M378.471,285.72l64.888-64.888l64.888,64.888h-25.478
				c-5.439,0-9.852,4.414-9.852,9.852v78.819h-59.115v-78.819c0-5.439-4.414-9.852-9.852-9.852H378.471z"/>
			<path d="M187.196,197.049h-78.819c-5.439,0-9.852,4.414-9.852,9.852v78.819h-39.41c-5.439,0-9.852,4.414-9.852,9.852
				c0,2.611,1.035,5.113,2.887,6.966l88.672,88.672c3.842,3.842,10.089,3.842,13.931,0l88.672-88.672
				c3.842-3.852,3.842-10.089,0-13.931c-1.852-1.852-4.355-2.887-6.966-2.887h-39.41v-78.819
				C197.049,201.463,192.635,197.049,187.196,197.049z M212.675,305.425l-64.888,64.888l-64.888-64.888h25.478
				c5.439,0,9.852-4.414,9.852-9.852v-78.819h59.115v78.819c0,5.439,4.414,9.852,9.852,9.852H212.675z"/>
			<rect x="39.41" y="512.326" width="19.705" height="39.41"/>
			<rect x="78.819" y="512.326" width="19.705" height="39.41"/>
			<rect x="118.229" y="512.326" width="19.705" height="39.41"/>
			<rect x="157.639" y="512.326" width="19.705" height="39.41"/>
			<rect x="197.049" y="512.326" width="19.705" height="39.41"/>
			<rect x="236.458" y="512.326" width="19.705" height="39.41"/>
			<rect x="39.41" y="453.212" width="19.705" height="39.41"/>
			<rect x="78.819" y="453.212" width="19.705" height="39.41"/>
			<rect x="118.229" y="453.212" width="19.705" height="39.41"/>
			<rect x="157.639" y="453.212" width="19.705" height="39.41"/>
			<rect x="197.049" y="453.212" width="19.705" height="39.41"/>
			<rect x="236.458" y="453.212" width="19.705" height="39.41"/>
		</g>
	</g>
</g>
<g>
</g>
<g>
</g>
<g>
</g>
<g>
</g>
<g>
</g>
<g>
</g>
<g>
</g>
<g>
</g>
<g>
</g>
<g>
</g>
<g>
</g>
<g>
</g>
<g>
</g>
<g>
</g>
<g>
</g>
</svg>
