<svg width="50" height="50" viewBox="0 0 50 50" fill="none" xmlns="http://www.w3.org/2000/svg">
<path d="M1.26088 48.2336L1.13879 48.8333H1.75083H9.91583H10.5279L10.4058 48.2336C10.0338 46.4062 8.59058 44.9749 6.76689 44.6018L6.16667 44.479V45.0917V46.1667H5.5V45.0917V44.4793L4.90001 44.6018C3.07595 44.974 1.63287 46.4064 1.26088 48.2336ZM0.5 49.1667C0.5 46.227 2.89364 43.8333 5.83333 43.8333C8.77302 43.8333 11.1667 46.227 11.1667 49.1667C11.1667 49.3514 11.018 49.5 10.8333 49.5H0.833333C0.648642 49.5 0.5 49.3514 0.5 49.1667Z" fill="#009FFC" stroke="#009FFC"/>
<path d="M49.1667 35.8333H47.705C47.6592 35.7175 47.6117 35.6025 47.56 35.4867L48.5942 34.4525C48.92 34.1267 48.92 33.6 48.5942 33.2742L45.0592 29.7392C44.8867 29.5667 44.6592 29.4917 44.4333 29.5025C45.7542 28.8017 46.6667 27.4292 46.6667 25.8333V4.16667C46.6667 1.86917 44.7975 0 42.5 0H4.16667C1.86917 0 0 1.86917 0 4.16667V25.8333C0 28.1308 1.86917 30 4.16667 30H15.0417L11.8933 35.8333H11.6667H10.4167C8.80833 35.8333 7.5 37.1417 7.5 38.75C7.5 40.3583 8.80833 41.6667 10.4167 41.6667H28.3333C28.3333 42.1275 28.7058 42.5 29.1667 42.5H30.6283C30.6742 42.6158 30.7217 42.7308 30.7733 42.8467L29.7392 43.8808C29.4133 44.2067 29.4133 44.7333 29.7392 45.0592L33.2742 48.5942C33.6 48.92 34.1267 48.92 34.4525 48.5942L35.4867 47.56C35.6025 47.6117 35.7175 47.6592 35.8333 47.705V49.1667C35.8333 49.6275 36.2058 50 36.6667 50H41.6667C42.1275 50 42.5 49.6275 42.5 49.1667V47.705C42.6158 47.6592 42.7308 47.6117 42.8467 47.56L43.8808 48.5942C44.2067 48.92 44.7333 48.92 45.0592 48.5942L48.5942 45.0592C48.92 44.7333 48.92 44.2067 48.5942 43.8808L47.56 42.8467C47.6117 42.7308 47.6592 42.6158 47.705 42.5H49.1667C49.6275 42.5 50 42.1275 50 41.6667V36.6667C50 36.2058 49.6275 35.8333 49.1667 35.8333ZM1.66667 4.16667C1.66667 2.78833 2.78833 1.66667 4.16667 1.66667H42.5C43.8783 1.66667 45 2.78833 45 4.16667V21.6667H1.66667V4.16667ZM4.16667 28.3333C2.78833 28.3333 1.66667 27.2117 1.66667 25.8333V23.3333H45V25.8333C45 27.2117 43.8783 28.3333 42.5 28.3333H41.6667H36.6667H30.2283H16.4383H4.16667ZM43.87 29.75L42.8467 30.7733C42.7308 30.7217 42.6158 30.6742 42.5 30.6283V30C42.9825 30 43.4383 29.9017 43.87 29.75ZM35.8333 30V30.6283C35.7175 30.6742 35.6025 30.7217 35.4867 30.7733L34.7133 30H35.8333ZM33.0125 30L32.2942 30.7183L31.805 30H33.0125ZM28.3333 40H10.4167C9.7275 40 9.16667 39.4392 9.16667 38.75C9.16667 38.0608 9.7275 37.5 10.4167 37.5H11.6667H12.39H28.3333V40ZM13.7871 35.8325L16.935 30H29.7883L31.095 31.9175L29.7392 33.2733C29.4133 33.5992 29.4133 34.1258 29.7392 34.4517L30.7733 35.4858C30.7217 35.6017 30.6742 35.7167 30.6283 35.8325H29.1667H13.7871ZM48.3333 40.8333H47.1175C46.7533 40.8333 46.4325 41.0692 46.3225 41.4158C46.1958 41.8183 46.025 42.2283 45.8142 42.6317C45.6458 42.955 45.7067 43.3492 45.9642 43.6067L46.8275 44.47L44.4708 46.8267L43.6075 45.9633C43.3492 45.7058 42.9558 45.6458 42.6325 45.8133C42.2292 46.0242 41.8192 46.195 41.4167 46.3217C41.0692 46.4325 40.8333 46.7533 40.8333 47.1175V48.3333H37.5V47.1175C37.5 46.7533 37.2642 46.4325 36.9175 46.3225C36.515 46.1958 36.105 46.025 35.7017 45.8142C35.3783 45.6467 34.9842 45.7067 34.7267 45.9642L33.8633 46.8275L31.5067 44.4708L32.37 43.6075C32.6275 43.35 32.6883 42.9558 32.52 42.6325C32.3092 42.2292 32.1383 41.8192 32.0117 41.4167C31.9008 41.0692 31.58 40.8333 31.2158 40.8333H30V37.5H31.2158C31.58 37.5 31.9008 37.2642 32.0108 36.9175C32.1375 36.515 32.3083 36.105 32.5192 35.7017C32.6875 35.3783 32.6267 34.9842 32.3692 34.7267L31.5058 33.8633L33.8625 31.5067L34.7258 32.37C34.9833 32.6283 35.3775 32.6883 35.7008 32.52C36.1042 32.3092 36.5142 32.1383 36.9167 32.0117C37.2642 31.9008 37.5 31.58 37.5 31.2158V30H40.8333V31.2158C40.8333 31.58 41.0692 31.9008 41.4158 32.0108C41.8183 32.1375 42.2283 32.3083 42.6317 32.5192C42.955 32.6875 43.3483 32.6275 43.6067 32.3692L44.47 31.5058L46.8267 33.8625L45.9633 34.7258C45.7058 34.9833 45.645 35.3775 45.8133 35.7008C46.0242 36.1042 46.195 36.5142 46.3217 36.9167C46.4325 37.2642 46.7533 37.5 47.1175 37.5H48.3333V40.8333Z" fill="#009FFC"/>
<path d="M39.1667 34.1667C36.4092 34.1667 34.1667 36.4092 34.1667 39.1667C34.1667 41.9242 36.4092 44.1667 39.1667 44.1667C41.9242 44.1667 44.1667 41.9242 44.1667 39.1667C44.1667 36.4092 41.9242 34.1667 39.1667 34.1667ZM39.1667 42.5C37.3284 42.5 35.8334 41.005 35.8334 39.1667C35.8334 37.3283 37.3284 35.8333 39.1667 35.8333C41.0051 35.8333 42.5001 37.3283 42.5001 39.1667C42.5001 41.005 41.0051 42.5 39.1667 42.5Z" fill="#009FFC"/>
<path d="M16.4225 6.4225L15.2442 5.24417L9.41088 11.0775C9.08505 11.4033 9.08505 11.93 9.41088 12.2558L15.2442 18.0892L16.4225 16.9108L11.1784 11.6667L16.4225 6.4225Z" fill="#009FFC"/>
<path d="M34.7558 11.0775L28.9225 5.24417L27.7441 6.4225L32.9883 11.6667L27.7441 16.9108L28.9225 18.0892L34.7558 12.2558C35.0817 11.93 35.0817 11.4033 34.7558 11.0775Z" fill="#009FFC"/>
<mask id="path-6-inside-1" fill="white">
<path d="M25.085 2.96528L17.5872 17.9609L19.0778 18.7063L26.5757 3.71061L25.085 2.96528Z"/>
</mask>
<path d="M25.085 2.96528L17.5872 17.9609L19.0778 18.7063L26.5757 3.71061L25.085 2.96528Z" fill="#009FFC"/>
<path d="M17.5872 17.9609L9.53756 13.9361L5.51275 21.9857L13.5624 26.0105L17.5872 17.9609ZM25.085 2.96528L29.1098 -5.08432L21.0602 -9.10912L17.0354 -1.05952L25.085 2.96528ZM26.5757 3.71061L34.6253 7.73541L38.6501 -0.314188L30.6005 -4.33899L26.5757 3.71061ZM19.0778 18.7063L15.053 26.7559L23.1026 30.7807L27.1274 22.7311L19.0778 18.7063ZM25.6368 21.9857L33.1346 6.99008L17.0354 -1.05952L9.53756 13.9361L25.6368 21.9857ZM21.0602 11.0149L22.5509 11.7602L30.6005 -4.33899L29.1098 -5.08432L21.0602 11.0149ZM18.5261 -0.314185L11.0282 14.6815L27.1274 22.7311L34.6253 7.73541L18.5261 -0.314185ZM23.1026 10.6567L21.612 9.91132L13.5624 26.0105L15.053 26.7559L23.1026 10.6567Z" fill="#009FFC" mask="url(#path-6-inside-1)"/>
<path d="M34.1667 16.6667H32.5V18.3333H34.1667V16.6667Z" fill="#009FFC"/>
<path d="M37.4999 16.6667H35.8333V18.3333H37.4999V16.6667Z" fill="#009FFC"/>
<path d="M40.8334 16.6667H39.1667V18.3333H40.8334V16.6667Z" fill="#009FFC"/>
</svg>
