<svg width="50" height="50" viewBox="0 0 50 50" fill="none" xmlns="http://www.w3.org/2000/svg">
<g clip-path="url(#clip0)">
<path d="M49.1672 -0.3H49.1671H49.1671H49.167H49.167H49.167H49.1669H49.1669H49.1669H49.1668H49.1668H49.1668H49.1667H49.1667H49.1667H0.833401C0.833379 -0.3 0.833356 -0.3 0.833333 -0.3C0.207593 -0.300105 -0.299858 0.207063 -0.3 0.832849V0.832917V0.832917V0.832918V0.832918V0.832919V0.83292V0.83292V0.832921V0.832922V0.832922V0.832923V0.832923V0.832924V0.832925V0.832925V0.832926V0.832927V0.832927V0.832928V0.832929V0.832929V0.83293V0.832931V0.832931V0.832932V0.832933V0.832933V0.832934V0.832935V0.832935V0.832936V0.832937V0.832937V0.832938V0.832939V0.832939V0.83294V0.832941V0.832941V0.832942V0.832943V0.832944V0.832944V0.832945V0.832946V0.832946V0.832947V0.832948V0.832949V0.832949V0.83295V0.832951V0.832951V0.832952V0.832953V0.832954V0.832954V0.832955V0.832956V0.832956V0.832957V0.832958V0.832959V0.832959V0.83296V0.832961V0.832962V0.832962V0.832963V0.832964V0.832965V0.832965V0.832966V0.832967V0.832968V0.832968V0.832969V0.83297V0.832971V0.832972V0.832972V0.832973V0.832974V0.832975V0.832975V0.832976V0.832977V0.832978V0.832978V0.832979V0.83298V0.832981V0.832982V0.832982V0.832983V0.832984V0.832985V0.832986V0.832986V0.832987V0.832988V0.832989V0.83299V0.83299V0.832991V0.832992V0.832993V0.832994V0.832995V0.832995V0.832996V0.832997V0.832998V0.832999V0.832999V0.833V0.833001V0.833002V0.833003V0.833004V0.833004V0.833005V0.833006V0.833007V0.833008V0.833009V0.833009V0.83301V0.833011V0.833012V0.833013V0.833014V0.833014V0.833015V0.833016V0.833017V0.833018V0.833019V0.833019V0.83302V0.833021V0.833022V0.833023V0.833024V0.833025V0.833025V0.833026V0.833027V0.833028V0.833029V0.83303V0.833031V0.833031V0.833032V0.833033V0.833034V0.833035V0.833036V0.833037V0.833038V0.833038V0.833039V0.83304V0.833041V0.833042V0.833043V0.833044V0.833045V0.833045V0.833046V0.833047V0.833048V0.833049V0.83305V0.833051V0.833052V0.833053V0.833053V0.833054V0.833055V0.833056V0.833057V0.833058V0.833059V0.83306V0.833061V0.833061V0.833062V0.833063V0.833064V0.833065V0.833066V0.833067V0.833068V0.833069V0.833069V0.83307V0.833071V0.833072V0.833073V0.833074V0.833075V0.833076V0.833077V0.833078V0.833079V0.833079V0.83308V0.833081V0.833082V0.833083V0.833084V0.833085V0.833086V0.833087V0.833088V0.833088V0.833089V0.83309V0.833091V0.833092V0.833093V0.833094V0.833095V0.833096V0.833097V0.833098V0.833098V0.833099V0.8331V0.833101V0.833102V0.833103V0.833104V0.833105V0.833106V0.833107V0.833108V0.833108V0.833109V0.83311V0.833111V0.833112V0.833113V0.833114V0.833115V0.833116V0.833117V0.833118V0.833119V0.833119V0.83312V0.833121V0.833122V0.833123V0.833124V0.833125V0.833126V0.833127V0.833128V0.833129V0.83313V0.83313V0.833131V0.833132V0.833133V0.833134V0.833135V0.833136V0.833137V0.833138V0.833139V0.83314V0.83314V0.833141V0.833142V0.833143V0.833144V0.833145V0.833146V0.833147V0.833148V0.833149V0.83315V0.833151V0.833151V0.833152V0.833153V0.833154V0.833155V0.833156V0.833157V0.833158V0.833159V0.83316V0.833161V0.833161V0.833162V0.833163V0.833164V0.833165V0.833166V0.833167V0.833168V0.833169V0.83317V0.833171V0.833171V0.833172V0.833173V0.833174V0.833175V0.833176V0.833177V0.833178V0.833179V0.83318V0.83318V0.833181V0.833182V0.833183V0.833184V0.833185V0.833186V0.833187V0.833188V0.833189V0.833189V0.83319V0.833191V0.833192V0.833193V0.833194V0.833195V0.833196V0.833197V0.833197V0.833198V0.833199V0.8332V0.833201V0.833202V0.833203V0.833204V0.833204V0.833205V0.833206V0.833207V0.833208V0.833209V0.83321V0.833211V0.833211V0.833212V0.833213V0.833214V0.833215V0.833216V0.833217V0.833218V0.833218V0.833219V0.83322V0.833221V0.833222V0.833223V0.833224V0.833224V0.833225V0.833226V0.833227V0.833228V0.833229V0.83323V0.83323V0.833231V0.833232V0.833233V0.833234V0.833235V0.833236V0.833236V0.833237V0.833238V0.833239V0.83324V0.833241V0.833241V0.833242V0.833243V0.833244V0.833245V0.833246V0.833246V0.833247V0.833248V0.833249V0.83325V0.833251V0.833251V0.833252V0.833253V0.833254V0.833255V0.833255V0.833256V0.833257V0.833258V0.833259V0.833259V0.83326V0.833261V0.833262V0.833263V0.833264V0.833264V0.833265V0.833266V0.833267V0.833267V0.833268V0.833269V0.83327V0.833271V0.833271V0.833272V0.833273V0.833274V0.833275V0.833275V0.833276V0.833277V0.833278V0.833278V0.833279V0.83328V0.833281V0.833281V0.833282V0.833283V0.833284V0.833284V0.833285V0.833286V0.833287V0.833288V0.833288V0.833289V0.83329V0.833291V0.833291V0.833292V0.833293V0.833293V0.833294V0.833295V0.833296V0.833296V0.833297V0.833298V0.833299V0.833299V0.8333V0.833301V0.833301V0.833302V0.833303V0.833304V0.833304V0.833305V0.833306V0.833306V0.833307V0.833308V0.833308V0.833309V0.83331V0.833311V0.833311V0.833312V0.833313V0.833313V0.833314V0.833315V0.833315V0.833316V0.833317V0.833317V0.833318V0.833319V0.833319V0.83332V0.833321V0.833321V0.833322V0.833323V0.833323V0.833324V0.833325V0.833325V0.833326V0.833326V0.833327V0.833328V0.833328V0.833329V0.83333V0.83333V0.833331V0.833331V0.833332V0.833333V0.833333V17.5V17.8H0H1.66667H1.96667V17.5V1.96667H48.0333V19.7H19.1667H18.8667V20V21.6667V21.9667H19.1667H49.1666C49.1666 21.9667 49.1666 21.9667 49.1667 21.9667C49.7924 21.9668 50.2999 21.4596 50.3 20.8338V20.8337V20.8337V20.8337V20.8337V20.8336V20.8336V20.8336V20.8335V20.8335V20.8335V20.8334V20.8334V20.8334V20.8334V0.8334C50.3 0.833378 50.3 0.833356 50.3 0.833333C50.3001 0.207594 49.7929 -0.299858 49.1672 -0.3Z" fill="#009FFC" stroke="#009FFC" stroke-width="0.6"/>
<path d="M44.4667 4.16666V3.86666H44.1667H27.5H27.2V4.16666V5.83332V6.13332H27.5H44.1667H44.4667V5.83332V4.16666Z" fill="#009FFC" stroke="#009FFC" stroke-width="0.6"/>
<path d="M46.9667 9.16666V8.86666H46.6667H30H29.7V9.16666V10.8333V11.1333H30H46.6667H46.9667V10.8333V9.16666Z" fill="#009FFC" stroke="#009FFC" stroke-width="0.6"/>
<path d="M43.6332 14.1667V13.8667H43.3332H26.6665H26.3665V14.1667V15.8333V16.1333H26.6665H43.3332H43.6332V15.8333V14.1667Z" fill="#009FFC" stroke="#009FFC" stroke-width="0.6"/>
<path d="M14.096 37.2C13.5075 35.4515 14.0719 33.5028 15.5333 32.3424V14.1667C15.5333 13.7435 15.7692 13.3555 16.1449 13.1606L16.1449 13.1606L24.3081 8.92559L24.325 8.91683L24.3428 8.91028C24.55 8.83419 24.7146 8.67302 24.7952 8.46761C24.8652 8.28075 24.8538 8.0731 24.7638 7.89509L24.7634 7.89446C24.594 7.55757 24.1952 7.40709 23.8461 7.5464L15.5758 11.8394C15.4147 11.923 15.2356 11.9669 15.0538 11.9667C15.0536 11.9667 15.0534 11.9667 15.0533 11.9667M14.096 37.2L15.0538 11.6667L15.0533 11.9667M14.096 37.2H13.6333V23.3333V23.0333H13.3333H11.6667H11.3667V23.3333V37.2H9.23602C9.3512 36.8548 9.42344 36.4966 9.451 36.1333H9.46667V35.8333V15V14.9999C9.46653 14.374 8.95896 13.8666 8.33306 13.8668H8.33304C7.83821 13.8669 7.40061 14.1881 7.25215 14.6602L7.25213 14.6603L4.76592 22.5718C4.63179 22.9323 4.23165 23.118 3.86931 22.9865C3.84415 22.9774 3.81964 22.9669 3.79589 22.9551C3.4575 22.7791 3.31408 22.37 3.46884 22.021L3.47705 22.0024L3.4827 21.983L5.70339 14.3284C6.26155 12.9097 7.62838 11.9736 9.15389 11.9667M14.096 37.2L9.15389 11.9667M15.0533 11.9667L9.15389 11.9667M15.0533 11.9667L9.15389 11.9667M22.969 5.45782L22.9686 5.45799C22.9436 5.46846 22.9176 5.47959 22.8912 5.49148L22.8836 5.49489L22.8762 5.49871L16.8102 8.64544C16.9118 8.2737 16.9648 7.88915 16.9667 7.50149V7.50001C16.9667 5.03318 14.9668 3.03334 12.5 3.03334C10.0332 3.03334 8.03333 5.03318 8.03333 7.50001L8.03334 7.50105C8.03605 8.2863 8.24758 9.05325 8.64162 9.72496C6.36238 9.93335 4.37901 11.4246 3.56057 13.5937L3.55641 13.6047L3.55313 13.616L1.33201 21.2717C0.751663 22.7988 1.51458 24.5094 3.04087 25.097C3.73867 25.3656 4.51212 25.361 5.20679 25.0842L5.20784 25.0838C6.00532 24.7625 6.62589 24.1137 6.9115 23.3028L6.91167 23.3029L6.91475 23.2931L7.2 22.3852V31.9296C6.53429 31.5449 5.7766 31.3385 5.00107 31.3357H5.00045C2.53706 31.3321 0.537019 33.3261 0.533334 35.7896C0.531742 36.8644 0.918013 37.8988 1.61374 38.7067C0.433519 39.4589 -0.295068 40.7651 -0.3 42.1824V42.1834V49.1666C-0.3 49.1666 -0.3 49.1667 -0.3 49.1667C-0.300105 49.7924 0.207063 50.2999 0.83285 50.3H0.832917H0.832932H0.832948H0.832963H0.832979H0.832995H0.83301H0.833026H0.833041H0.833057H0.833072H0.833088H0.833103H0.833119H0.833134H0.83315H0.833165H0.833181H0.833197H0.833212H0.833228H0.833244H0.83326H0.833275H0.833291H0.833307H0.833323H9.1666C9.16662 50.3 9.16664 50.3 9.16667 50.3C9.79241 50.3001 10.2999 49.7929 10.3 49.1672V49.1671V49.1671V49.167V49.167V49.167V49.1669V49.1669V49.1669V49.1669V49.1668V49.1668V49.1668V49.1667V49.1667L10.3 42.1834L10.3 42.1824C10.2965 41.1735 9.92451 40.2106 9.26925 39.4667H14.0641C13.4088 40.2106 13.0368 41.1735 13.0334 42.1824V42.1834V49.1666C13.0334 49.1666 13.0334 49.1667 13.0334 49.1667C13.0333 49.7924 13.5405 50.2999 14.1663 50.3H14.1664H14.1664H14.1664H14.1664H14.1665H14.1665H14.1665H14.1666H14.1666H14.1666H14.1666H14.1667H14.1667H14.1667H14.1668H22.5C22.5001 50.3 22.5001 50.3 22.5001 50.3C23.1258 50.3001 23.6333 49.7929 23.6334 49.1672V49.1671V49.1671V49.167V49.167V49.167V49.1669V49.1669V49.1669V49.1669V49.1668V49.1668V49.1668V49.1667V49.1667L23.6334 42.1834L23.6334 42.1824C23.6285 40.765 22.8998 39.4587 21.7194 38.7065C23.2131 36.971 23.1564 34.3508 21.5271 32.6815C20.5522 31.6827 19.1721 31.2025 17.8001 31.3677V14.8551L25.2775 10.9726C26.7935 10.3343 27.5096 8.58977 26.8772 7.06958L26.6002 7.1848L26.8772 7.06957C26.243 5.54524 24.4933 4.82365 22.969 5.45782ZM12.5 5.30001C13.715 5.30001 14.7 6.28497 14.7 7.50001C14.7 8.71505 13.715 9.70001 12.5 9.70001C11.2855 9.69856 10.3013 8.71425 10.3 7.49969C10.3002 6.2848 11.2851 5.30001 12.5 5.30001ZM5.00034 33.6024C6.21523 33.6026 7.2 34.5875 7.2 35.8024C7.2 37.0175 6.21504 38.0024 5 38.0024C3.78505 38.0024 2.80016 37.0176 2.8 35.8027C2.80128 34.5881 3.78563 33.6038 5.00034 33.6024ZM1.96667 48.0333V42.1837C1.96819 41.1438 2.81091 40.3013 3.85088 40.3H6.14912C7.18905 40.3013 8.0319 41.1439 8.03333 42.1839V48.0333H1.96667ZM21.3667 42.1839V48.0333H15.3V42.1839C15.3014 41.1439 16.1442 40.3013 17.1842 40.3H19.4825C20.5225 40.3013 21.3652 41.1439 21.3667 42.1839ZM18.333 33.6024C19.5477 33.6037 20.5321 34.5881 20.5333 35.8027C20.5332 37.0176 19.5483 38.0024 18.3333 38.0024C17.1183 38.0024 16.1333 37.0175 16.1333 35.8024C16.1333 34.5875 17.1181 33.6026 18.333 33.6024Z" fill="#009FFC" stroke="#009FFC" stroke-width="0.6"/>
<path d="M35.0528 38.7068C36.5493 36.9712 36.4949 34.3488 34.8658 32.6766C33.1443 30.9097 30.3163 30.8729 28.5494 32.5943C26.849 34.251 26.7509 36.9324 28.2803 38.7067C27.1001 39.4589 26.3714 40.7651 26.3665 42.1824V42.1835V49.1666C26.3665 49.1667 26.3665 49.1667 26.3665 49.1667C26.3664 49.7924 26.8736 50.2999 27.4994 50.3H27.4994H27.4994H27.4994H27.4995H27.4995H27.4995H27.4995H27.4995H27.4995H27.4996H27.4996H27.4996H27.4996H27.4996H27.4996H27.4996H27.4997H27.4997H27.4997H27.4997H27.4997H27.4997H27.4997H27.4998H27.4998H27.4998H27.4998H27.4998H27.4998H35.8331C35.8331 50.3 35.8331 50.3 35.8332 50.3C36.4589 50.3001 36.9664 49.793 36.9665 49.1672V49.1671V49.1671V49.1671V49.1671V49.1671V49.167V49.167V49.167V49.167V49.167V49.167V49.1669V49.1669V49.1669V49.1669V49.1669V49.1669V49.1669V49.1668V49.1668V49.1668V49.1668V49.1668V49.1668V49.1667V49.1667V49.1667V49.1667L36.9665 42.1835L36.9665 42.1824C36.9616 40.7652 36.233 39.4589 35.0528 38.7068ZM31.6667 33.6024C32.8817 33.6025 33.8665 34.5875 33.8665 35.8024C33.8665 37.0175 32.8815 38.0024 31.6665 38.0024C30.4516 38.0024 29.4667 37.0176 29.4665 35.8027C29.4678 34.5881 30.4521 33.6039 31.6667 33.6024ZM28.6332 48.0334V42.1836C28.6347 41.1438 29.4774 40.3013 30.5174 40.3H32.8156C33.8556 40.3013 34.6984 41.144 34.6998 42.1839V48.0334H28.6332Z" fill="#009FFC" stroke="#009FFC" stroke-width="0.6"/>
<path d="M48.3863 38.7068C49.8828 36.9712 49.8284 34.3488 48.1993 32.6766C46.4778 30.9097 43.6498 30.8729 41.8829 32.5943C40.1825 34.251 40.0844 36.9324 41.6137 38.7067C40.4336 39.4589 39.7049 40.7651 39.7 42.1824V42.1835V49.1666C39.7 49.1667 39.7 49.1667 39.7 49.1667C39.6999 49.7924 40.2071 50.2999 40.8328 50.3H40.8329H40.8329H40.8329H40.833H40.833H40.833H40.833H40.833H40.833H40.833H40.8331H40.8331H40.8331H40.8331H40.8331H40.8331H40.8332H40.8332H40.8332H40.8332H40.8332H40.8332H40.8332H40.8333H40.8333H40.8333H40.8333H40.8333H40.8333H49.1666C49.1666 50.3 49.1666 50.3 49.1667 50.3C49.7924 50.3001 50.2999 49.793 50.3 49.1672V49.1671V49.1671V49.1671V49.1671V49.1671V49.167V49.167V49.167V49.167V49.167V49.167V49.1669V49.1669V49.1669V49.1669V49.1669V49.1669V49.1669V49.1668V49.1668V49.1668V49.1668V49.1668V49.1668V49.1667V49.1667V49.1667V49.1667L50.3 42.1835L50.3 42.1824C50.2951 40.7652 49.5665 39.4589 48.3863 38.7068ZM45.0002 33.6024C46.2152 33.6025 47.2 34.5875 47.2 35.8024C47.2 37.0175 46.215 38.0024 45 38.0024C43.7851 38.0024 42.8002 37.0176 42.8 35.8027C42.8013 34.5881 43.7856 33.6039 45.0002 33.6024ZM41.9667 48.0334V42.1836C41.9682 41.1438 42.8109 40.3013 43.8509 40.3H46.1491C47.1891 40.3013 48.0319 41.144 48.0333 42.1839V48.0334H41.9667Z" fill="#009FFC" stroke="#009FFC" stroke-width="0.6"/>
</g>
<defs>
<clipPath id="clip0">
<rect width="50" height="50" fill="white"/>
</clipPath>
</defs>
</svg>
