<svg width="50" height="50" viewBox="0 0 50 50" fill="none" xmlns="http://www.w3.org/2000/svg">
<path d="M41.6667 6.25H8.33333C3.7384 6.25 0 9.9884 0 14.5833V35.4167C0 40.0116 3.7384 43.75 8.33333 43.75H41.6667C46.2616 43.75 50 40.0116 50 35.4167V14.5833C50 9.9884 46.2616 6.25 41.6667 6.25ZM45.8333 14.5833V19.7917H32.9686C32.1086 17.3676 29.7989 15.625 27.0833 15.625C25.7436 15.625 24.2508 16.3783 22.9167 17.3075V10.4167H41.6667C43.9646 10.4167 45.8333 12.2854 45.8333 14.5833ZM14.5833 23.9583C13.4343 23.9583 12.5 23.024 12.5 21.875C12.5 20.726 13.4343 19.7917 14.5793 19.7917C15.123 19.8176 16.4739 20.7148 17.8157 21.876C16.4759 23.0367 15.1271 23.9324 14.5833 23.9583ZM23.851 21.874C25.1907 20.7133 26.5396 19.8176 27.0833 19.7917C28.2323 19.7917 29.1667 20.726 29.1667 21.875C29.1667 23.024 28.2323 23.9583 27.0874 23.9583C26.5437 23.9324 25.1938 23.0352 23.851 21.874ZM8.33333 10.4167H18.75V17.3075C17.4159 16.3783 15.9231 15.625 14.5833 15.625C11.8678 15.625 9.55811 17.3676 8.69802 19.7917H4.16667V14.5833C4.16667 12.2854 6.03536 10.4167 8.33333 10.4167ZM4.16667 35.4167V23.9583H8.69802C9.53878 26.324 11.7605 28.0355 14.3926 28.1158L11.7844 32.2144C11.1669 33.1863 11.4532 34.4742 12.4237 35.0917C13.3947 35.7091 14.6815 35.4218 15.3 34.4533L18.75 29.0304V39.5833H8.33333C6.03536 39.5833 4.16667 37.7146 4.16667 35.4167ZM41.6667 39.5833H22.9167V29.0304L26.3677 34.4533C26.7644 35.0759 27.4384 35.4167 28.127 35.4167C28.5095 35.4167 28.8971 35.3114 29.244 35.0906C30.2144 34.4732 30.5008 33.1853 29.8833 32.2133L27.2751 28.1148C29.9062 28.0345 32.1294 26.324 32.9697 23.9573H45.8333V35.4156C45.8333 37.7146 43.9646 39.5833 41.6667 39.5833Z" fill="#009FFC"/>
</svg>
