<svg width="32" height="30" viewBox="0 0 32 30" fill="none" xmlns="http://www.w3.org/2000/svg">
<rect width="32" height="30" fill="#009FFC"/>
<path d="M20.2419 5.60173V9.34573H15.7299V22.5217H11.0259V9.34573H6.56187V5.60173H20.2419Z" fill="white"/>
<path d="M26.688 18.36C27.664 18.568 28.448 19.056 29.04 19.824C29.632 20.576 29.928 21.44 29.928 22.416C29.928 23.824 29.432 24.944 28.44 25.776C27.464 26.592 26.096 27 24.336 27H16.488V10.152H24.072C25.784 10.152 27.12 10.544 28.08 11.328C29.056 12.112 29.544 13.176 29.544 14.52C29.544 15.512 29.28 16.336 28.752 16.992C28.24 17.648 27.552 18.104 26.688 18.36ZM20.592 16.968H23.28C23.952 16.968 24.464 16.824 24.816 16.536C25.184 16.232 25.368 15.792 25.368 15.216C25.368 14.64 25.184 14.2 24.816 13.896C24.464 13.592 23.952 13.44 23.28 13.44H20.592V16.968ZM23.616 23.688C24.304 23.688 24.832 23.536 25.2 23.232C25.584 22.912 25.776 22.456 25.776 21.864C25.776 21.272 25.576 20.808 25.176 20.472C24.792 20.136 24.256 19.968 23.568 19.968H20.592V23.688H23.616Z" fill="white"/>
</svg>
