<svg width="50" height="50" viewBox="0 0 50 50" fill="none" xmlns="http://www.w3.org/2000/svg">
<g clip-path="url(#clip0)">
<path d="M31.25 20.8333H27.0833V12.5C27.0833 10.2899 26.2054 8.17025 24.6426 6.60744C23.0798 5.04464 20.9601 4.16667 18.75 4.16667C16.5399 4.16667 14.4202 5.04464 12.8574 6.60744C11.2946 8.17025 10.4167 10.2899 10.4167 12.5V20.8333H6.25V12.5C6.25 9.18479 7.56696 6.00537 9.91117 3.66117C12.2554 1.31696 15.4348 0 18.75 0C22.0652 0 25.2446 1.31696 27.5888 3.66117C29.933 6.00537 31.25 9.18479 31.25 12.5V20.8333Z" fill="#009FFC"/>
<path d="M31.25 20.8333H27.0833V12.5C27.0833 10.2899 26.2054 8.17025 24.6426 6.60744C23.0798 5.04464 20.9601 4.16667 18.75 4.16667C16.5399 4.16667 14.4202 5.04464 12.8574 6.60744C11.2946 8.17025 10.4167 10.2899 10.4167 12.5V20.8333H6.25V12.5C6.25 9.18479 7.56696 6.00537 9.91117 3.66117C12.2554 1.31696 15.4348 0 18.75 0C22.0652 0 25.2446 1.31696 27.5888 3.66117C29.933 6.00537 31.25 9.18479 31.25 12.5V20.8333Z" stroke="#009FFC"/>
<path d="M33.3335 18.75H4.16683C3.01624 18.75 2.0835 19.6827 2.0835 20.8333V43.75C2.0835 44.9006 3.01624 45.8333 4.16683 45.8333H33.3335C34.4841 45.8333 35.4168 44.9006 35.4168 43.75V20.8333C35.4168 19.6827 34.4841 18.75 33.3335 18.75Z" fill="#009FFC"/>
<path d="M33.3335 18.75H4.16683C3.01624 18.75 2.0835 19.6827 2.0835 20.8333V43.75C2.0835 44.9006 3.01624 45.8333 4.16683 45.8333H33.3335C34.4841 45.8333 35.4168 44.9006 35.4168 43.75V20.8333C35.4168 19.6827 34.4841 18.75 33.3335 18.75Z" stroke="#009FFC"/>
<path d="M10.4168 41.6667C9.86429 41.6667 9.33439 41.4472 8.94369 41.0565C8.55299 40.6658 8.3335 40.1359 8.3335 39.5833V18.75H4.16683C3.6143 18.75 3.08439 18.9695 2.69369 19.3602C2.30299 19.7509 2.0835 20.2808 2.0835 20.8333V43.75C2.0835 44.3025 2.30299 44.8324 2.69369 45.2231C3.08439 45.6138 3.6143 45.8333 4.16683 45.8333H33.3335C33.886 45.8333 34.4159 45.6138 34.8066 45.2231C35.1973 44.8324 35.4168 44.3025 35.4168 43.75V41.6667H10.4168Z" fill="#009FFC"/>
<path d="M10.4168 41.6667C9.86429 41.6667 9.33439 41.4472 8.94369 41.0565C8.55299 40.6658 8.3335 40.1359 8.3335 39.5833V18.75H4.16683C3.6143 18.75 3.08439 18.9695 2.69369 19.3602C2.30299 19.7509 2.0835 20.2808 2.0835 20.8333V43.75C2.0835 44.3025 2.30299 44.8324 2.69369 45.2231C3.08439 45.6138 3.6143 45.8333 4.16683 45.8333H33.3335C33.886 45.8333 34.4159 45.6138 34.8066 45.2231C35.1973 44.8324 35.4168 44.3025 35.4168 43.75V41.6667H10.4168Z" stroke="#009FFC"/>
<path d="M22.9168 29.1667C22.9175 28.4351 22.7255 27.7163 22.3602 27.0824C21.995 26.4486 21.4692 25.9221 20.8359 25.5559C20.2026 25.1897 19.4841 24.9967 18.7525 24.9962C18.0209 24.9958 17.3022 25.188 16.6685 25.5535C16.0347 25.919 15.5084 26.4449 15.1424 27.0784C14.7764 27.7118 14.5837 28.4304 14.5835 29.162C14.5833 29.8935 14.7758 30.6122 15.1415 31.2458C15.5072 31.8794 16.0333 32.4056 16.6668 32.7714V39.5833H20.8335V32.7714C21.4667 32.4064 21.9926 31.8811 22.3584 31.2483C22.7241 30.6155 22.9167 29.8975 22.9168 29.1667Z" fill="white"/>
<path d="M22.9168 29.1667C22.9175 28.4351 22.7255 27.7163 22.3602 27.0824C21.995 26.4486 21.4692 25.9221 20.8359 25.5559C20.2026 25.1897 19.4841 24.9967 18.7525 24.9962C18.0209 24.9958 17.3022 25.188 16.6685 25.5535C16.0347 25.919 15.5084 26.4449 15.1424 27.0784C14.7764 27.7118 14.5837 28.4304 14.5835 29.162C14.5833 29.8935 14.7758 30.6122 15.1415 31.2458C15.5072 31.8794 16.0333 32.4056 16.6668 32.7714V39.5833H20.8335V32.7714C21.4667 32.4064 21.9926 31.8811 22.3584 31.2483C22.7241 30.6155 22.9167 29.8975 22.9168 29.1667Z" stroke="#009FFC"/>
<path d="M16.6667 29.1667C16.6673 28.2436 16.9745 27.3468 17.5402 26.6173C18.1058 25.8878 18.8978 25.3669 19.7917 25.1365C18.8168 24.8835 17.7833 24.9926 16.8826 25.4435C15.982 25.8944 15.2755 26.6566 14.8939 27.5888C14.5124 28.5209 14.4818 29.5597 14.8078 30.5127C15.1338 31.4657 15.7942 32.2682 16.6667 32.7714V39.5833H18.7501V32.7714C18.1168 32.4064 17.5909 31.8811 17.2252 31.2483C16.8595 30.6155 16.6669 29.8975 16.6667 29.1667Z" fill="white"/>
<path d="M16.6667 29.1667C16.6673 28.2436 16.9745 27.3468 17.5402 26.6173C18.1058 25.8878 18.8978 25.3669 19.7917 25.1365C18.8168 24.8835 17.7833 24.9926 16.8826 25.4435C15.982 25.8944 15.2755 26.6566 14.8939 27.5888C14.5124 28.5209 14.4818 29.5597 14.8078 30.5127C15.1338 31.4657 15.7942 32.2682 16.6667 32.7714V39.5833H18.7501V32.7714C18.1168 32.4064 17.5909 31.8811 17.2252 31.2483C16.8595 30.6155 16.6669 29.8975 16.6667 29.1667Z" stroke="#009FFC"/>
<path d="M37.5 50C44.4036 50 50 44.4036 50 37.5C50 30.5964 44.4036 25 37.5 25C30.5964 25 25 30.5964 25 37.5C25 44.4036 30.5964 50 37.5 50Z" fill="#009FFC"/>
<path d="M37.5 50C44.4036 50 50 44.4036 50 37.5C50 30.5964 44.4036 25 37.5 25C30.5964 25 25 30.5964 25 37.5C25 44.4036 30.5964 50 37.5 50Z" stroke="#009FFC"/>
<path d="M37.5 41.6667C37.1769 41.6667 36.8582 41.5913 36.5695 41.4464L32.4028 39.363L34.2664 35.6365L36.788 36.8971L39.9346 32.1776L43.4013 34.4888L39.2346 40.7388C39.0443 41.0244 38.7863 41.2585 38.4837 41.4204C38.1811 41.5822 37.8432 41.6669 37.5 41.6667Z" fill="white"/>
<path d="M37.5 41.6667C37.1769 41.6667 36.8582 41.5913 36.5695 41.4464L32.4028 39.363L34.2664 35.6365L36.788 36.8971L39.9346 32.1776L43.4013 34.4888L39.2346 40.7388C39.0443 41.0244 38.7863 41.2585 38.4837 41.4204C38.1811 41.5822 37.8432 41.6669 37.5 41.6667Z" stroke="#009FFC"/>
</g>
<defs>
<clipPath id="clip0">
<rect width="50" height="50" fill="white"/>
</clipPath>
</defs>
</svg>
