<svg height="512" viewBox="0 0 58 58" width="512" xmlns="http://www.w3.org/2000/svg"><g id="Page-1" fill="none" fill-rule="evenodd"><g id="015---Dark-Web" fill-rule="nonzero"><path id="Shape" d="m43.42 50h10.58c2.209139 0 4-1.790861 4-4v-39.5h-58v39.5c0 2.209139 1.790861 4 4 4z" fill="#3f5c6c"/><path id="Shape" d="m4.028 16c-.55228475 0-1-.4477153-1-1v-3c0-.5522847.44771525-1 1-1s1 .4477153 1 1v3c0 .5522847-.44771525 1-1 1z" fill="#84b5cb"/><path id="Shape" d="m4.028 35c-.55228475 0-1-.4477153-1-1v-15c0-.5522847.44771525-1 1-1s1 .4477153 1 1v15c0 .5522847-.44771525 1-1 1z" fill="#84b5cb"/><path id="Shape" d="m50.632 42.878-.613-.254c-.7848808-2.4617441-1.1298218-5.0425391-1.019-7.624-.1108218-2.5814609.2341192-5.1622559 1.019-7.624l.613-.254c.5103111-.2115251.7525251-.7966889.541-1.307s-.7966889-.7525251-1.307-.541l-20.866 8.644-20.866-8.644c-.33011341-.1368327-.70815016-.087158-.99170747.1303123-.28355732.2174702-.42955609.569697-.383.924.04655609.3543029.27859406.656855.60870747.7936877l.613.254c.78473773 2.4617762 1.12967532 5.0425457 1.019 7.624.11067532 2.5814543-.23426227 5.1622238-1.019 7.624l-.613.254c-.4383021.1840515-.68645126.6512268-.59354863 1.1174379.09290262.4662111.50117535.8025802.97654863.8045621.13137717-.0003573.26144063-.0261662.383-.076l.613-.254c2.295411 1.185765 4.3640153 2.7665835 6.111 4.67 1.9044582 1.7474297 3.4856925 3.8171506 4.671 6.114l-.253.611c-.1368327.3301134-.087158.7081502.1303123.9917075.2174702.2835573.569697.4295561.924.383.3543029-.0465561.656855-.2785941.7936877-.6087075l.255-.616c2.4612197-.7823412 5.0408139-1.1259035 7.621-1.015 2.580304-.1102578 5.159901.2339819 7.621 1.017l.255.616c.1368327.3301134.4393848.5621514.7936877.6087075.354303.0465561.7065298-.0994427.9240001-.383.2174702-.2835573.2671449-.6615941.1303122-.9917075l-.253-.611c1.1853075-2.2968494 2.7665418-4.3665703 4.671-6.114 1.7469847-1.9034165 3.815589-3.484235 6.111-4.67l.613.254c.1215373.0499069.2516153.0757188.383.076.4772478.0002902.8881898-.3367019.9813647-.804766s-.1573876-.9367382-.5983647-1.119234zm-3-1.242-5.885-2.436c-.3733396-1.3675918-.5418384-2.7829822-.5-4.2-.0418384-1.4170178.1266604-2.8324082.5-4.2l5.887-2.438c-.4466757 2.1838418-.6592105 4.4090881-.634 6.638-.0250682 2.2282442.1874659 4.4528125.634 6.636zm-20.479-4.788-3.26 7.87c-.6478487-.8782586-1.361932-1.7056725-2.136-2.475-.7694547-.7735491-1.5964953-1.4875987-2.474-2.136zm-8.636 1.412c.1625228-1.0790117.2427541-2.1688206.24-3.26.0027541-1.0911794-.0774772-2.1809883-.24-3.26l7.87 3.26zm10.483-.646 3.259 7.869c-2.1608836-.3200037-4.3571164-.3200037-6.518 0zm1.847-.766 7.87 3.259c-1.7540716 1.3030761-3.3073044 2.8566458-4.61 4.611zm.766-1.848 7.87-3.26c-.3199976 2.1615544-.3199976 4.3584456 0 6.52zm-21.246-6.636 5.886 2.436c.3733396 1.3675918.5418384 2.7829822.5 4.2.0418384 1.4170178-.1266604 2.8324082-.5 4.2l-5.886 2.438c.4457392-2.1839675.6579326-4.4091492.633-6.638.0247907-2.2281831-.187402-4.4526868-.633-6.636zm5.9 19.364c-1.5576178-1.5933377-3.2806913-3.0160467-5.14-4.244l5.887-2.439c1.2308176.7018757 2.3509579 1.5820822 3.324 2.612 1.0307856.9730031 1.9110873 2.0939386 2.612 3.326l-2.432 5.887c-1.2283863-1.8601635-2.6517793-3.5839239-4.246-5.142zm12.733 5.272c-2.2275407-.025255-4.4514307.1869431-6.634.633l2.434-5.887c1.3676849-.372862 2.7830039-.5413524 4.2-.5 1.4169961-.0413524 2.8323151.127138 4.2.5l2.438 5.887c-2.1838778-.4463399-4.4091238-.6585395-6.638-.633zm12.728-5.272c-1.5942207 1.5580761-3.0176137 3.2818365-4.246 5.142l-2.437-5.887c.7009127-1.2320614 1.5812144-2.3529969 2.612-3.326.9730421-1.0299178 2.0931824-1.9101243 3.324-2.612l5.887 2.439c-1.8588439 1.2285815-3.5818534 2.6512376-5.14 4.244z" fill="#d1d4d1"/><ellipse id="Oval" cx="29" cy="19" fill="#2980ba" rx="9" ry="6"/><circle id="Oval" cx="27" cy="21" fill="#2c3e50" r="1"/><circle id="Oval" cx="31" cy="21" fill="#2c3e50" r="1"/><path id="Shape" d="m17 19c-.5522847 0-1-.4477153-1-1v-2c0-1.6568542 1.3431458-3 3-3h5.04c.5522847 0 1 .4477153 1 1s-.4477153 1-1 1h-5.04c-.5522847 0-1 .4477153-1 1v2c0 .5522847-.4477153 1-1 1z" fill="#3b97d3"/><g fill="#67b9cc"><path id="Shape" d="m13 22c-.5522847 0-1-.4477153-1-1v-1c0-1.6568542 1.3431458-3 3-3h5.12c.5522847 0 1 .4477153 1 1s-.4477153 1-1 1h-5.12c-.5522847 0-1 .4477153-1 1v1c0 .5522847-.4477153 1-1 1z"/><path id="Shape" d="m16 25c-.5522847 0-1-.4477153-1-1v-1c0-1.6568542 1.3431458-3 3-3h2.52c.5522847 0 1 .4477153 1 1s-.4477153 1-1 1h-2.52c-.5522847 0-1 .4477153-1 1v1c0 .5522847-.4477153 1-1 1z"/><path id="Shape" d="m19 28c-.5522847 0-1-.4477153-1-1v-1c0-1.6568542 1.3431458-3 3-3h3.04c.5522847 0 1 .4477153 1 1s-.4477153 1-1 1h-3.04c-.5522847 0-1 .4477153-1 1v1c0 .5522847-.4477153 1-1 1z"/></g><path id="Shape" d="m41 19c-.5522847 0-1-.4477153-1-1v-2c0-.5522847-.4477153-1-1-1h-5.04c-.5522847 0-1-.4477153-1-1s.4477153-1 1-1h5.04c1.6568542 0 3 1.3431458 3 3v2c0 .5522847-.4477153 1-1 1z" fill="#3b97d3"/><path id="Shape" d="m45 22c-.5522847 0-1-.4477153-1-1v-1c0-.5522847-.4477153-1-1-1h-5.12c-.5522847 0-1-.4477153-1-1s.4477153-1 1-1h5.12c1.6568542 0 3 1.3431458 3 3v1c0 .5522847-.4477153 1-1 1z" fill="#67b9cc"/><path id="Shape" d="m42 25c-.5522847 0-1-.4477153-1-1v-1c0-.5522847-.4477153-1-1-1h-2.51c-.5522847 0-1-.4477153-1-1s.4477153-1 1-1h2.51c1.6568542 0 3 1.3431458 3 3v1c0 .5522847-.4477153 1-1 1z" fill="#67b9cc"/><path id="Shape" d="m39 28c-.5522847 0-1-.4477153-1-1v-1c0-.5522847-.4477153-1-1-1h-3.04c-.5522847 0-1-.4477153-1-1s.4477153-1 1-1h3.04c1.6568542 0 3 1.3431458 3 3v1c0 .5522847-.4477153 1-1 1z" fill="#67b9cc"/><path id="Shape" d="m29 14c-.5522847 0-1-.4477153-1-1v-5c0-.55228475.4477153-1 1-1s1 .44771525 1 1v5c0 .5522847-.4477153 1-1 1z" fill="#d1d4d1"/><path id="Shape" d="m2 0h54c1.1045695 0 2 .8954305 2 2v6h-58v-6c0-1.1045695.8954305-2 2-2z" fill="#547580"/><circle id="Oval" cx="4" cy="4" fill="#ff5364" r="1"/><circle id="Oval" cx="8" cy="4" fill="#24ae5f" r="1"/><circle id="Oval" cx="12" cy="4" fill="#f0c419" r="1"/><path id="Shape" d="m54 5h-6c-.5522847 0-1-.44771525-1-1s.4477153-1 1-1h6c.5522847 0 1 .44771525 1 1s-.4477153 1-1 1z" fill="#d1d4d1"/></g></g></svg>